<?xml version="1.0" encoding="UTF-8" standalone="no"?>
<!-- Created with Inkscape (http://www.inkscape.org/) -->

<svg
   xmlns:dc="http://purl.org/dc/elements/1.1/"
   xmlns:cc="http://creativecommons.org/ns#"
   xmlns:rdf="http://www.w3.org/1999/02/22-rdf-syntax-ns#"
   xmlns:svg="http://www.w3.org/2000/svg"
   xmlns="http://www.w3.org/2000/svg"
   xmlns:sodipodi="http://sodipodi.sourceforge.net/DTD/sodipodi-0.dtd"
   xmlns:inkscape="http://www.inkscape.org/namespaces/inkscape"
   width="470"
   height="536.08093"
   id="svg2"
   version="1.1"
   inkscape:version="0.48.3.1 r9886"
   sodipodi:docname="padlock locked.svg">
  <defs
     id="defs4" />
  <sodipodi:namedview
     id="base"
     pagecolor="#000000"
     bordercolor="#666666"
     borderopacity="1.0"
     inkscape:pageopacity="0.70588235"
     inkscape:pageshadow="2"
     inkscape:zoom="0.24748737"
     inkscape:cx="264.92092"
     inkscape:cy="206.86499"
     inkscape:document-units="px"
     inkscape:current-layer="layer2"
     showgrid="false"
     fit-margin-top="0"
     fit-margin-left="0"
     fit-margin-right="0"
     fit-margin-bottom="0"
     borderlayer="false"
     inkscape:showpageshadow="true"
     showborder="true"
     inkscape:window-width="1652"
     inkscape:window-height="1313"
     inkscape:window-x="238"
     inkscape:window-y="77"
     inkscape:window-maximized="0" />
  <metadata
     id="metadata7">
    <rdf:RDF>
      <cc:Work
         rdf:about="">
        <dc:format>image/svg+xml</dc:format>
        <dc:type
           rdf:resource="http://purl.org/dc/dcmitype/StillImage" />
        <dc:title></dc:title>
      </cc:Work>
    </rdf:RDF>
  </metadata>
  <g
     inkscape:groupmode="layer"
     id="layer2"
     inkscape:label="Layer"
     style="display:inline"
     transform="translate(-117.85714,-161.28125)">
    <path
       style="color:#000000;fill:#ffffff;fill-opacity:1;stroke:none;stroke-width:2.5;marker:none;visibility:visible;display:inline;overflow:visible;enable-background:accumulate"
       d="M 25.71875 226.09375 C 11.473036 226.09375 7.9579198e-17 237.53554 0 251.78125 L 0 510.375 C 0 524.62071 11.473036 536.09375 25.71875 536.09375 L 444.28125 536.09375 C 458.52696 536.09375 470 524.62071 470 510.375 L 470 251.78125 C 470 237.53554 458.52696 226.09375 444.28125 226.09375 L 25.71875 226.09375 z M 235 303.21875 C 260.2473 303.21875 280.71875 323.6902 280.71875 348.9375 C 280.71875 365.9473 271.40814 380.75201 257.625 388.625 C 257.76794 389.66227 257.84375 390.70345 257.84375 391.78125 L 257.84375 451.78125 C 257.84375 464.44411 247.66286 474.65625 235 474.65625 C 222.33714 474.65625 212.15625 464.44411 212.15625 451.78125 L 212.15625 391.78125 C 212.15625 390.70345 212.23206 389.66227 212.375 388.625 C 198.59767 380.75046 189.28125 365.94296 189.28125 348.9375 C 189.28125 323.6902 209.7527 303.21875 235 303.21875 z "
       transform="translate(117.85714,161.28125)"
       id="rect2997" />
    <path
       style="color:#000000;fill:none;stroke:#ffffff;stroke-width:65;stroke-linecap:butt;stroke-linejoin:round;stroke-miterlimit:4;stroke-opacity:1;stroke-dasharray:none;marker:none;visibility:visible;display:inline;overflow:visible;enable-background:accumulate"
       d="m 363.59375,138.21875 c -0.0997,-0.83168 -9.5e-4,-2.04039 0,-2.84375 C 363.59375,78.56857 306.00804,32.5 235,32.5 c -71.00804,0 -128.5625,46.06857 -128.5625,102.875 0,0.95086 -7e-4,1.89909 0.0312,2.84375 l -0.0312,0 0,136.4375"
       transform="translate(117.85714,161.28125)"
       id="path3788"
       inkscape:connector-curvature="0"
       sodipodi:nodetypes="ccssccc" />
  </g>
</svg>
