<?xml version="1.0" encoding="UTF-8" standalone="no"?>
<!-- Generator: Adobe Illustrator 15.0.0, SVG Export Plug-In . SVG Version: 6.00 Build 0)  -->

<svg
   xmlns:ns="http://ns.adobe.com/SaveForWeb/1.0/"
   xmlns:dc="http://purl.org/dc/elements/1.1/"
   xmlns:cc="http://creativecommons.org/ns#"
   xmlns:rdf="http://www.w3.org/1999/02/22-rdf-syntax-ns#"
   xmlns:svg="http://www.w3.org/2000/svg"
   xmlns="http://www.w3.org/2000/svg"
   xmlns:xlink="http://www.w3.org/1999/xlink"
   xmlns:sodipodi="http://sodipodi.sourceforge.net/DTD/sodipodi-0.dtd"
   xmlns:inkscape="http://www.inkscape.org/namespaces/inkscape"
   version="1.1"
   id="svg4745"
   inkscape:version="0.48.3.1 r9886"
   sodipodi:docname="compass.svg"
   x="0px"
   y="0px"
   width="311.811px"
   height="311.811px"
   viewBox="0 0 311.811 311.811"
   enable-background="new 0 0 311.811 311.811"
   xml:space="preserve"><defs
   id="defs390"><linearGradient
   inkscape:collect="always"
   xlink:href="#path5257_1_"
   id="linearGradient3557"
   gradientUnits="userSpaceOnUse"
   gradientTransform="matrix(1,0,0,-1,8.48,-242.9702)"
   x1="249.4287"
   y1="-575.553"
   x2="45.4202"
   y2="-222.2001" /><linearGradient
   inkscape:collect="always"
   xlink:href="#circle5274_1_"
   id="linearGradient3559"
   gradientUnits="userSpaceOnUse"
   gradientTransform="matrix(1,0,0,-1,8.48,-242.9702)"
   x1="11.3633"
   y1="-264.886"
   x2="5.6934"
   y2="-255.0654" /><linearGradient
   inkscape:collect="always"
   xlink:href="#circle5285_1_"
   id="linearGradient3561"
   gradientUnits="userSpaceOnUse"
   gradientTransform="matrix(1,0,0,-1,8.48,-242.9702)"
   x1="11.2222"
   y1="-264.6414"
   x2="5.8355"
   y2="-255.3112" /><linearGradient
   inkscape:collect="always"
   xlink:href="#polygon5292_1_"
   id="linearGradient3563"
   gradientUnits="userSpaceOnUse"
   gradientTransform="matrix(1,0,0,-1,8.48,-242.9702)"
   x1="10.2183"
   y1="-262.9045"
   x2="6.8369"
   y2="-257.0479" /><linearGradient
   inkscape:collect="always"
   xlink:href="#circle5311_1_"
   id="linearGradient3565"
   gradientUnits="userSpaceOnUse"
   gradientTransform="matrix(1,0,0,-1,8.48,-242.9702)"
   x1="289.1582"
   y1="-264.886"
   x2="283.4883"
   y2="-255.0654" /><linearGradient
   inkscape:collect="always"
   xlink:href="#circle5322_1_"
   id="linearGradient3567"
   gradientUnits="userSpaceOnUse"
   gradientTransform="matrix(1,0,0,-1,8.48,-242.9702)"
   x1="289.0186"
   y1="-264.6414"
   x2="283.6318"
   y2="-255.311" /><linearGradient
   inkscape:collect="always"
   xlink:href="#polygon5329_1_"
   id="linearGradient3569"
   gradientUnits="userSpaceOnUse"
   gradientTransform="matrix(1,0,0,-1,8.48,-242.9702)"
   x1="288.0146"
   y1="-262.905"
   x2="284.6334"
   y2="-257.0483" /><linearGradient
   inkscape:collect="always"
   xlink:href="#circle5348_1_"
   id="linearGradient3571"
   gradientUnits="userSpaceOnUse"
   gradientTransform="matrix(1,0,0,-1,8.48,-242.9702)"
   x1="289.1592"
   y1="-542.6833"
   x2="283.4894"
   y2="-532.8627" /><linearGradient
   inkscape:collect="always"
   xlink:href="#circle5359_1_"
   id="linearGradient3573"
   gradientUnits="userSpaceOnUse"
   gradientTransform="matrix(1,0,0,-1,8.48,-242.9702)"
   x1="289.0176"
   y1="-542.4377"
   x2="283.631"
   y2="-533.1076" /><linearGradient
   inkscape:collect="always"
   xlink:href="#polygon5366_1_"
   id="linearGradient3575"
   gradientUnits="userSpaceOnUse"
   gradientTransform="matrix(1,0,0,-1,8.48,-242.9702)"
   x1="288.0137"
   y1="-540.7004"
   x2="284.633"
   y2="-534.8448" /><linearGradient
   inkscape:collect="always"
   xlink:href="#circle5385_1_"
   id="linearGradient3577"
   gradientUnits="userSpaceOnUse"
   gradientTransform="matrix(1,0,0,-1,8.48,-242.9702)"
   x1="11.3633"
   y1="-542.6833"
   x2="5.6934"
   y2="-532.8627" /><linearGradient
   inkscape:collect="always"
   xlink:href="#circle5396_1_"
   id="linearGradient3579"
   gradientUnits="userSpaceOnUse"
   gradientTransform="matrix(1,0,0,-1,8.48,-242.9702)"
   x1="11.2212"
   y1="-542.4382"
   x2="5.8345"
   y2="-533.1082" /><linearGradient
   inkscape:collect="always"
   xlink:href="#polygon5403_1_"
   id="linearGradient3581"
   gradientUnits="userSpaceOnUse"
   gradientTransform="matrix(1,0,0,-1,8.48,-242.9702)"
   x1="10.2178"
   y1="-540.7"
   x2="6.837"
   y2="-534.8441" /><linearGradient
   inkscape:collect="always"
   xlink:href="#circle5418_1_"
   id="linearGradient3583"
   gradientUnits="userSpaceOnUse"
   gradientTransform="matrix(1,0,0,-1,8.48,-242.9702)"
   x1="72.2959"
   y1="-268.7444"
   x2="222.5569"
   y2="-529.004" /><linearGradient
   inkscape:collect="always"
   xlink:href="#circle5425_1_"
   id="linearGradient3585"
   gradientUnits="userSpaceOnUse"
   gradientTransform="matrix(1,0,0,-1,8.48,-242.9702)"
   x1="75.1313"
   y1="-273.655"
   x2="219.7224"
   y2="-524.0941" /><radialGradient
   inkscape:collect="always"
   xlink:href="#circle5436_1_"
   id="radialGradient3587"
   gradientUnits="userSpaceOnUse"
   gradientTransform="matrix(1,0,0,-1,8.48,-242.9702)"
   cx="147.4248"
   cy="-398.8752"
   r="143.1487" />
	
		<linearGradient
   gradientTransform="matrix(1 0 0 -1 8.48 -242.9702)"
   y2="-218.9289"
   x2="43.5334"
   y1="-578.8215"
   x1="251.3174"
   gradientUnits="userSpaceOnUse"
   id="path5246_1_">
		<stop
   id="stop7"
   style="stop-color:#404041"
   offset="0" />
		<stop
   id="stop9"
   style="stop-color:#9FA0A4"
   offset="1" />
	</linearGradient>
	
	
	
	
	
	
	
	
		<linearGradient
   gradientTransform="matrix(1 0 0 -1 8.48 -242.9702)"
   y2="-524.0941"
   x2="219.7224"
   y1="-273.655"
   x1="75.1313"
   gradientUnits="userSpaceOnUse"
   id="circle5425_1_">
		<stop
   id="stop129"
   style="stop-color:#404041"
   offset="0" />
		<stop
   id="stop131"
   style="stop-color:#9FA0A4"
   offset="1" />
	</linearGradient>
	
		
	
	
	
	
	
	
	
	
	
	
	
	
	
	
	
	
	
	
	
	
	
	
<linearGradient
   inkscape:collect="always"
   xlink:href="#path5246_1_"
   id="linearGradient3775"
   gradientUnits="userSpaceOnUse"
   gradientTransform="matrix(1,0,0,-1,8.48,-242.9702)"
   x1="251.3174"
   y1="-578.8215"
   x2="43.5334"
   y2="-218.9289" /></defs><sodipodi:namedview
   pagecolor="#ffffff"
   bordercolor="#666666"
   borderopacity="1"
   objecttolerance="10"
   gridtolerance="10"
   guidetolerance="10"
   inkscape:pageopacity="0"
   inkscape:pageshadow="2"
   inkscape:window-width="1067"
   inkscape:window-height="817"
   id="namedview388"
   showgrid="false"
   inkscape:zoom="0.75686873"
   inkscape:cx="77.952751"
   inkscape:cy="155.9055"
   inkscape:window-x="451"
   inkscape:window-y="202"
   inkscape:window-maximized="0"
   inkscape:current-layer="needle" />
<metadata
   id="metadata3">
	<ns:sfw>
		<ns:slices />
		<ns:sliceSourceBounds
   height="313.809"
   width="313.811"
   y="263.596"
   x="140.595"
   bottomLeftOrigin="true" />
	</ns:sfw>
<rdf:RDF><cc:Work
     rdf:about=""><dc:format>image/svg+xml</dc:format><dc:type
       rdf:resource="http://purl.org/dc/dcmitype/StillImage" /></cc:Work></rdf:RDF></metadata>

<g
   inkscape:groupmode="layer"
   id="layer1"
   inkscape:label="Background"
   style="display:inline"
   sodipodi:insensitive="true"><g
     id="g3783"><path
       id="path5246"
       inkscape:connector-curvature="0"
       d="m 311.81,297.638 c 0,7.825 -6.346,14.172 -14.172,14.172 H 14.174 C 6.346,311.81 0,305.464 0,297.638 V 14.174 C 0,6.347 6.346,0.001 14.174,0.001 h 283.464 c 7.827,0 14.173,6.347 14.173,14.173 l -10e-4,283.464 0,0 z"
       style="fill:url(#linearGradient3775)" /><g
       id="g5248">
		<path
   id="path5250"
   inkscape:connector-curvature="0"
   d="m 308.977,295.063 c 0,7.684 -6.23,13.914 -13.913,13.914 H 16.749 c -7.685,0 -13.915,-6.23 -13.915,-13.914 V 16.75 c 0,-7.687 6.23,-13.916 13.915,-13.916 h 278.313 c 7.684,0 13.914,6.229 13.914,13.916 l 10e-4,278.313 0,0 z"
   style="fill:#333333" />
		
			<linearGradient
   id="path5257_1_"
   gradientUnits="userSpaceOnUse"
   x1="249.4287"
   y1="-575.55298"
   x2="45.4202"
   y2="-222.2001"
   gradientTransform="matrix(1,0,0,-1,8.48,-242.9702)">
			<stop
   offset="0"
   style="stop-color:#231F20"
   id="stop15" />
			<stop
   offset="1"
   style="stop-color:#F1F1F2"
   id="stop17" />
		</linearGradient>
		<path
   id="path5257"
   inkscape:connector-curvature="0"
   enable-background="new    "
   d="m 308.977,295.063 c 0,7.684 -6.23,13.914 -13.913,13.914 H 16.749 c -7.685,0 -13.915,-6.23 -13.915,-13.914 V 16.75 c 0,-7.687 6.23,-13.916 13.915,-13.916 h 278.313 c 7.684,0 13.914,6.229 13.914,13.916 l 10e-4,278.313 0,0 z"
   style="opacity:0.2;fill:url(#linearGradient3557)" />
	</g><g
       id="g5259">
		<g
   id="g5263">
			<g
   id="g5265">
				<g
   id="g5267">
					
						<linearGradient
   id="circle5274_1_"
   gradientUnits="userSpaceOnUse"
   x1="11.3633"
   y1="-264.88599"
   x2="5.6933999"
   y2="-255.0654"
   gradientTransform="matrix(1,0,0,-1,8.48,-242.9702)">
						<stop
   offset="0"
   style="stop-color:#151515"
   id="stop25" />
						<stop
   offset="1"
   style="stop-color:#58595B"
   id="stop27" />
					</linearGradient>
					
						<circle
   d="m 22.677,17.006001 c 0,3.130902 -2.538098,5.669 -5.669001,5.669 -3.130902,0 -5.669,-2.538098 -5.669,-5.669 0,-3.130903 2.538098,-5.669001 5.669,-5.669001 3.130903,0 5.669001,2.538098 5.669001,5.669001 z"
   id="circle5274"
   sodipodi:cx="17.007999"
   sodipodi:rx="5.6690001"
   sodipodi:cy="17.006001"
   sodipodi:ry="5.6690001"
   cx="17.007999"
   cy="17.006001"
   r="5.6690001"
   style="fill:url(#linearGradient3559)">
					</circle>
				</g>
				<g
   id="g5276">
					
						<circle
   d="m 22.394,17.006001 c 0,2.974605 -2.411395,5.386 -5.386001,5.386 -2.974605,0 -5.386,-2.411395 -5.386,-5.386 0,-2.974606 2.411395,-5.386001 5.386,-5.386001 2.974606,0 5.386001,2.411395 5.386001,5.386001 z"
   id="circle5278"
   sodipodi:cx="17.007999"
   sodipodi:rx="5.3860002"
   sodipodi:cy="17.006001"
   sodipodi:ry="5.3860002"
   cx="17.007999"
   cy="17.006001"
   r="5.3860002"
   style="fill:#1f1f1f">
					</circle>
					
						<linearGradient
   id="circle5285_1_"
   gradientUnits="userSpaceOnUse"
   x1="11.2222"
   y1="-264.64139"
   x2="5.8354998"
   y2="-255.3112"
   gradientTransform="matrix(1,0,0,-1,8.48,-242.9702)">
						<stop
   offset="0"
   style="stop-color:#404041"
   id="stop33" />
						<stop
   offset="1"
   style="stop-color:#9FA0A4"
   id="stop35" />
					</linearGradient>
					
						<circle
   d="m 22.394,17.006001 c 0,2.974605 -2.411395,5.386 -5.386001,5.386 -2.974605,0 -5.386,-2.411395 -5.386,-5.386 0,-2.974606 2.411395,-5.386001 5.386,-5.386001 2.974606,0 5.386001,2.411395 5.386001,5.386001 z"
   id="circle5285"
   sodipodi:cx="17.007999"
   sodipodi:rx="5.3860002"
   sodipodi:cy="17.006001"
   sodipodi:ry="5.3860002"
   enable-background="new    "
   cx="17.007999"
   cy="17.006001"
   r="5.3860002"
   style="opacity:0.5;fill:url(#linearGradient3561)">
					</circle>
				</g>
				
					<linearGradient
   id="polygon5292_1_"
   gradientUnits="userSpaceOnUse"
   x1="10.2183"
   y1="-262.90451"
   x2="6.8369002"
   y2="-257.04791"
   gradientTransform="matrix(1,0,0,-1,8.48,-242.9702)">
					<stop
   offset="0"
   style="stop-color:#58595B"
   id="stop39" />
					<stop
   offset="1"
   style="stop-color:#151515"
   id="stop41" />
				</linearGradient>
				<polygon
   id="polygon5292"
   points="13.626,17.006 15.317,14.078 18.698,14.078 20.389,17.006 18.698,19.935 15.317,19.935 "
   style="fill:url(#linearGradient3563)" />
				<polygon
   id="polygon5294"
   points="13.897,17.006 15.452,14.312 18.563,14.312 20.119,17.006 18.563,19.701 15.452,19.701 " />
			</g>
		</g>
	</g><g
       id="g5296">
		<g
   id="g5300">
			<g
   id="g5302">
				<g
   id="g5304">
					
						<linearGradient
   id="circle5311_1_"
   gradientUnits="userSpaceOnUse"
   x1="289.1582"
   y1="-264.88599"
   x2="283.48831"
   y2="-255.0654"
   gradientTransform="matrix(1,0,0,-1,8.48,-242.9702)">
						<stop
   offset="0"
   style="stop-color:#151515"
   id="stop50" />
						<stop
   offset="1"
   style="stop-color:#58595B"
   id="stop52" />
					</linearGradient>
					
						<circle
   id="circle5311"
   sodipodi:cx="294.80399"
   sodipodi:rx="5.6690001"
   sodipodi:cy="17.006001"
   sodipodi:ry="5.6690001"
   cx="294.80399"
   cy="17.006001"
   r="5.6690001"
   style="fill:url(#linearGradient3565)">
					</circle>
				</g>
				<g
   id="g5313">
					
						<circle
   id="circle5315"
   sodipodi:cx="294.80399"
   sodipodi:rx="5.3860002"
   sodipodi:cy="17.006001"
   sodipodi:ry="5.3860002"
   cx="294.80399"
   cy="17.006001"
   r="5.3860002"
   style="fill:#1f1f1f">
					</circle>
					
						<linearGradient
   id="circle5322_1_"
   gradientUnits="userSpaceOnUse"
   x1="289.01859"
   y1="-264.64139"
   x2="283.63181"
   y2="-255.311"
   gradientTransform="matrix(1,0,0,-1,8.48,-242.9702)">
						<stop
   offset="0"
   style="stop-color:#404041"
   id="stop58" />
						<stop
   offset="1"
   style="stop-color:#9FA0A4"
   id="stop60" />
					</linearGradient>
					
						<circle
   id="circle5322"
   sodipodi:cx="294.80399"
   sodipodi:rx="5.3860002"
   sodipodi:cy="17.006001"
   sodipodi:ry="5.3860002"
   enable-background="new    "
   cx="294.80399"
   cy="17.006001"
   r="5.3860002"
   style="opacity:0.5;fill:url(#linearGradient3567)">
					</circle>
				</g>
				
					<linearGradient
   id="polygon5329_1_"
   gradientUnits="userSpaceOnUse"
   x1="288.01459"
   y1="-262.905"
   x2="284.63339"
   y2="-257.04831"
   gradientTransform="matrix(1,0,0,-1,8.48,-242.9702)">
					<stop
   offset="0"
   style="stop-color:#58595B"
   id="stop64" />
					<stop
   offset="1"
   style="stop-color:#151515"
   id="stop66" />
				</linearGradient>
				<polygon
   id="polygon5329"
   points="291.422,17.006 293.112,14.078 296.494,14.078 298.186,17.006 296.494,19.935 293.112,19.935 "
   style="fill:url(#linearGradient3569)" />
				<polygon
   id="polygon5331"
   points="291.692,17.006 293.248,14.312 296.358,14.312 297.914,17.006 296.358,19.701 293.248,19.701 " />
			</g>
		</g>
	</g><g
       id="g5333">
		<g
   id="g5337">
			<g
   id="g5339">
				<g
   id="g5341">
					
						<linearGradient
   id="circle5348_1_"
   gradientUnits="userSpaceOnUse"
   x1="289.15921"
   y1="-542.68329"
   x2="283.48941"
   y2="-532.86267"
   gradientTransform="matrix(1,0,0,-1,8.48,-242.9702)">
						<stop
   offset="0"
   style="stop-color:#151515"
   id="stop75" />
						<stop
   offset="1"
   style="stop-color:#58595B"
   id="stop77" />
					</linearGradient>
					
						<circle
   id="circle5348"
   sodipodi:cx="294.80399"
   sodipodi:rx="5.6690001"
   sodipodi:cy="294.80301"
   sodipodi:ry="5.6690001"
   cx="294.80399"
   cy="294.80301"
   r="5.6690001"
   style="fill:url(#linearGradient3571)">
					</circle>
				</g>
				<g
   id="g5350">
					
						<circle
   id="circle5352"
   sodipodi:cx="294.80399"
   sodipodi:rx="5.3860002"
   sodipodi:cy="294.80301"
   sodipodi:ry="5.3860002"
   cx="294.80399"
   cy="294.80301"
   r="5.3860002"
   style="fill:#1f1f1f">
					</circle>
					
						<linearGradient
   id="circle5359_1_"
   gradientUnits="userSpaceOnUse"
   x1="289.01761"
   y1="-542.43768"
   x2="283.63101"
   y2="-533.1076"
   gradientTransform="matrix(1,0,0,-1,8.48,-242.9702)">
						<stop
   offset="0"
   style="stop-color:#404041"
   id="stop83" />
						<stop
   offset="1"
   style="stop-color:#9FA0A4"
   id="stop85" />
					</linearGradient>
					
						<circle
   id="circle5359"
   sodipodi:cx="294.80399"
   sodipodi:rx="5.3860002"
   sodipodi:cy="294.80301"
   sodipodi:ry="5.3860002"
   enable-background="new    "
   cx="294.80399"
   cy="294.80301"
   r="5.3860002"
   style="opacity:0.5;fill:url(#linearGradient3573)">
					</circle>
				</g>
				
					<linearGradient
   id="polygon5366_1_"
   gradientUnits="userSpaceOnUse"
   x1="288.0137"
   y1="-540.70038"
   x2="284.633"
   y2="-534.84479"
   gradientTransform="matrix(1,0,0,-1,8.48,-242.9702)">
					<stop
   offset="0"
   style="stop-color:#58595B"
   id="stop89" />
					<stop
   offset="1"
   style="stop-color:#151515"
   id="stop91" />
				</linearGradient>
				<polygon
   id="polygon5366"
   points="291.421,294.803 293.112,291.874 296.493,291.874 298.185,294.803 296.493,297.73 293.112,297.73 "
   style="fill:url(#linearGradient3575)" />
				<polygon
   id="polygon5368"
   points="291.692,294.803 293.247,292.107 296.358,292.107 297.913,294.803 296.358,297.496 293.247,297.496 " />
			</g>
		</g>
	</g><g
       id="g5370">
		<g
   id="g5374">
			<g
   id="g5376">
				<g
   id="g5378">
					
						<linearGradient
   id="circle5385_1_"
   gradientUnits="userSpaceOnUse"
   x1="11.3633"
   y1="-542.68329"
   x2="5.6933999"
   y2="-532.86267"
   gradientTransform="matrix(1,0,0,-1,8.48,-242.9702)">
						<stop
   offset="0"
   style="stop-color:#151515"
   id="stop100" />
						<stop
   offset="1"
   style="stop-color:#58595B"
   id="stop102" />
					</linearGradient>
					
						<circle
   id="circle5385"
   sodipodi:cx="17.007999"
   sodipodi:rx="5.6690001"
   sodipodi:cy="294.80301"
   sodipodi:ry="5.6690001"
   cx="17.007999"
   cy="294.80301"
   r="5.6690001"
   style="fill:url(#linearGradient3577)">
					</circle>
				</g>
				<g
   id="g5387">
					
						<circle
   id="circle5389"
   sodipodi:cx="17.007999"
   sodipodi:rx="5.3860002"
   sodipodi:cy="294.80301"
   sodipodi:ry="5.3860002"
   cx="17.007999"
   cy="294.80301"
   r="5.3860002"
   style="fill:#1f1f1f">
					</circle>
					
						<linearGradient
   id="circle5396_1_"
   gradientUnits="userSpaceOnUse"
   x1="11.2212"
   y1="-542.43817"
   x2="5.8344998"
   y2="-533.10822"
   gradientTransform="matrix(1,0,0,-1,8.48,-242.9702)">
						<stop
   offset="0"
   style="stop-color:#404041"
   id="stop108" />
						<stop
   offset="1"
   style="stop-color:#9FA0A4"
   id="stop110" />
					</linearGradient>
					
						<circle
   id="circle5396"
   sodipodi:cx="17.007999"
   sodipodi:rx="5.3860002"
   sodipodi:cy="294.80301"
   sodipodi:ry="5.3860002"
   enable-background="new    "
   cx="17.007999"
   cy="294.80301"
   r="5.3860002"
   style="opacity:0.5;fill:url(#linearGradient3579)">
					</circle>
				</g>
				
					<linearGradient
   id="polygon5403_1_"
   gradientUnits="userSpaceOnUse"
   x1="10.2178"
   y1="-540.70001"
   x2="6.8369999"
   y2="-534.84412"
   gradientTransform="matrix(1,0,0,-1,8.48,-242.9702)">
					<stop
   offset="0"
   style="stop-color:#58595B"
   id="stop114" />
					<stop
   offset="1"
   style="stop-color:#151515"
   id="stop116" />
				</linearGradient>
				<polygon
   id="polygon5403"
   points="13.626,294.803 15.318,291.874 18.699,291.874 20.39,294.803 18.699,297.73 15.318,297.73 "
   style="fill:url(#linearGradient3581)" />
				<polygon
   id="polygon5405"
   points="13.898,294.803 15.453,292.107 18.564,292.107 20.119,294.803 18.564,297.496 15.453,297.496 " />
			</g>
		</g>
	</g><g
       id="g5407">
		<g
   id="g5411">
			
				<linearGradient
   id="circle5418_1_"
   gradientUnits="userSpaceOnUse"
   x1="72.295898"
   y1="-268.74438"
   x2="222.5569"
   y2="-529.00403"
   gradientTransform="matrix(1,0,0,-1,8.48,-242.9702)">
				<stop
   offset="0"
   style="stop-color:#FFFFFF"
   id="stop123" />
				<stop
   offset="1"
   style="stop-color:#231F20"
   id="stop125" />
			</linearGradient>
			
				<circle
   id="circle5418"
   sodipodi:cx="155.90601"
   sodipodi:rx="150.23599"
   sodipodi:cy="155.90401"
   sodipodi:ry="150.23599"
   cx="155.90601"
   cy="155.90401"
   r="150.23599"
   style="fill:url(#linearGradient3583)">
			</circle>
		</g>
	</g><circle
       id="circle5425"
       sodipodi:cx="155.90601"
       sodipodi:rx="144.567"
       sodipodi:cy="155.90401"
       sodipodi:ry="144.567"
       cx="155.90601"
       cy="155.90401"
       r="144.567"
       style="fill:url(#linearGradient3585)">
	</circle><g
       id="g5427">
		
			<circle
   id="circle5429"
   sodipodi:cx="155.905"
   sodipodi:rx="143.149"
   sodipodi:cy="155.905"
   sodipodi:ry="143.149"
   cx="155.905"
   cy="155.905"
   r="143.149">
		</circle>
		
			<radialGradient
   id="circle5436_1_"
   cx="147.4248"
   cy="-398.87521"
   r="143.1487"
   gradientTransform="matrix(1,0,0,-1,8.48,-242.9702)"
   gradientUnits="userSpaceOnUse">
			<stop
   offset="0"
   style="stop-color:#404040"
   id="stop137" />
			<stop
   offset="1"
   style="stop-color:#000000"
   id="stop139" />
		</radialGradient>
		
			<circle
   id="circle5436"
   sodipodi:cx="155.905"
   sodipodi:rx="143.149"
   sodipodi:cy="155.905"
   sodipodi:ry="143.149"
   cx="155.905"
   cy="155.905"
   r="143.149"
   style="fill:url(#radialGradient3587)">
		</circle>
	</g><g
       id="g142">
		<line
   x1="165.164"
   y1="131.423"
   x2="207.32899"
   y2="169.78999"
   id="line144"
   style="fill:none" />
		<g
   id="g146">
			<path
   d="m 164.103,132.484 c 14.057,12.789 28.11,25.578 42.166,38.367 1.426,1.299 3.556,-0.814 2.121,-2.121 -14.056,-12.789 -28.111,-25.578 -42.166,-38.367 -1.426,-1.299 -3.554,0.816 -2.121,2.121 l 0,0 z"
   id="path148"
   inkscape:connector-curvature="0"
   style="fill:#f8b133" />
		</g>
	</g><g
       id="g150">
		<line
   x1="207.32899"
   y1="169.78999"
   x2="207.32899"
   y2="184.839"
   id="line152"
   style="fill:none" />
		<g
   id="g154">
			<path
   d="m 205.829,169.79 c 0,5.017 0,10.03 0,15.049 0,1.935 3,1.935 3,0 0,-5.019 0,-10.032 0,-15.049 0,-1.935 -3,-1.935 -3,0 l 0,0 z"
   id="path156"
   inkscape:connector-curvature="0"
   style="fill:#f8b133" />
		</g>
	</g><g
       id="g158">
		<line
   x1="207.32899"
   y1="184.839"
   x2="165.33"
   y2="162.757"
   id="line160"
   style="fill:none" />
		<g
   id="g162">
			<path
   d="m 208.086,183.544 c -13.999,-7.361 -27.999,-14.724 -41.999,-22.082 -1.71,-0.899 -3.227,1.688 -1.514,2.59 13.998,7.361 27.998,14.722 41.998,22.082 1.711,0.899 3.228,-1.69 1.515,-2.59 l 0,0 z"
   id="path164"
   inkscape:connector-curvature="0"
   style="fill:#f8b133" />
		</g>
	</g><g
       id="g166">
		<line
   x1="165.33"
   y1="162.757"
   x2="163.16499"
   y2="201.72501"
   id="line168"
   style="fill:none" />
		<g
   id="g170">
			<path
   d="m 163.83,162.757 c -0.722,12.989 -1.442,25.979 -2.165,38.969 -0.107,1.936 2.895,1.924 3,0 0.723,-12.989 1.443,-25.979 2.165,-38.969 0.107,-1.934 -2.893,-1.924 -3,0 l 0,0 z"
   id="path172"
   inkscape:connector-curvature="0"
   style="fill:#f8b133" />
		</g>
	</g><g
       id="g174">
		<line
   x1="163.16499"
   y1="201.72501"
   x2="179.185"
   y2="215.58099"
   id="line176"
   style="fill:none" />
		<g
   id="g178">
			<path
   d="m 162.104,202.786 c 5.34,4.616 10.681,9.235 16.021,13.854 1.455,1.259 3.587,-0.854 2.121,-2.121 -5.34,-4.618 -10.681,-9.237 -16.021,-13.854 -1.454,-1.259 -3.587,0.853 -2.121,2.121 l 0,0 z"
   id="path180"
   inkscape:connector-curvature="0"
   style="fill:#f8b133" />
		</g>
	</g><g
       id="g182">
		<line
   x1="179.185"
   y1="215.58099"
   x2="179.185"
   y2="230.735"
   id="line184"
   style="fill:none" />
		<g
   id="g186">
			<path
   d="m 177.685,215.581 c 0,5.052 0,10.103 0,15.152 0,1.937 3,1.937 3,0 0,-5.052 0,-10.103 0,-15.152 0,-1.935 -3,-1.935 -3,0 l 0,0 z"
   id="path188"
   inkscape:connector-curvature="0"
   style="fill:#f8b133" />
		</g>
	</g><g
       id="g190">
		<line
   x1="179.185"
   y1="230.735"
   x2="160.55"
   y2="219.04401"
   id="line192"
   style="fill:none" />
		<g
   id="g194">
			<path
   d="m 179.942,229.44 c -6.213,-3.896 -12.424,-7.795 -18.637,-11.689 -1.645,-1.031 -3.147,1.563 -1.515,2.59 6.212,3.896 12.424,7.795 18.638,11.689 1.643,1.031 3.149,-1.564 1.514,-2.59 l 0,0 z"
   id="path196"
   inkscape:connector-curvature="0"
   style="fill:#f8b133" />
		</g>
	</g><g
       id="g198">
		<line
   x1="160.55"
   y1="219.04401"
   x2="155.65199"
   y2="223.15601"
   id="line200"
   style="fill:none" />
		<g
   id="g202">
			<path
   d="m 159.489,217.983 c -1.633,1.371 -3.265,2.742 -4.897,4.113 -1.483,1.246 0.65,3.356 2.121,2.121 1.634,-1.371 3.265,-2.742 4.897,-4.113 1.484,-1.246 -0.65,-3.356 -2.121,-2.121 l 0,0 z"
   id="path204"
   inkscape:connector-curvature="0"
   style="fill:#f8b133" />
		</g>
	</g><g
       id="g206">
		<line
   x1="155.65199"
   y1="223.15601"
   x2="151.47301"
   y2="219.04401"
   id="line208"
   style="fill:none" />
		<g
   id="g210">
			<path
   d="m 156.713,222.096 c -1.393,-1.371 -2.786,-2.742 -4.179,-4.113 -1.379,-1.355 -3.501,0.765 -2.121,2.121 1.393,1.371 2.786,2.742 4.179,4.113 1.379,1.358 3.502,-0.762 2.121,-2.121 l 0,0 z"
   id="path212"
   inkscape:connector-curvature="0"
   style="fill:#f8b133" />
		</g>
	</g><g
       id="g214">
		<line
   x1="151.47301"
   y1="219.04401"
   x2="131.556"
   y2="230.735"
   id="line216"
   style="fill:none" />
		<g
   id="g218">
			<path
   d="m 150.717,217.749 c -6.639,3.896 -13.278,7.794 -19.917,11.689 -1.667,0.979 -0.158,3.571 1.514,2.59 6.639,-3.896 13.278,-7.794 19.917,-11.689 1.666,-0.979 0.157,-3.572 -1.514,-2.59 l 0,0 z"
   id="path220"
   inkscape:connector-curvature="0"
   style="fill:#f8b133" />
		</g>
	</g><g
       id="g222">
		<line
   x1="131.556"
   y1="230.735"
   x2="131.556"
   y2="215.58099"
   id="line224"
   style="fill:none" />
		<g
   id="g226">
			<path
   d="m 133.056,230.735 c 0,-5.052 0,-10.103 0,-15.152 0,-1.937 -3,-1.937 -3,0 0,5.052 0,10.103 0,15.152 0,1.935 3,1.935 3,0 l 0,0 z"
   id="path228"
   inkscape:connector-curvature="0"
   style="fill:#f8b133" />
		</g>
	</g><g
       id="g230">
		<line
   x1="131.556"
   y1="215.58099"
   x2="148.44299"
   y2="199.995"
   id="line232"
   style="fill:none" />
		<g
   id="g234">
			<path
   d="m 132.617,216.641 c 5.629,-5.195 11.258,-10.391 16.887,-15.586 1.424,-1.313 -0.702,-3.431 -2.121,-2.121 -5.629,5.195 -11.258,10.393 -16.887,15.586 -1.424,1.315 0.702,3.431 2.121,2.121 l 0,0 z"
   id="path236"
   inkscape:connector-curvature="0"
   style="fill:#f8b133" />
		</g>
	</g><g
       id="g238">
		<line
   x1="148.44299"
   y1="199.995"
   x2="145.84399"
   y2="162.757"
   id="line240"
   style="fill:none" />
		<g
   id="g242">
			<path
   d="m 149.943,199.995 c -0.866,-12.413 -1.732,-24.825 -2.599,-37.238 -0.134,-1.919 -3.135,-1.934 -3,0 0.866,12.413 1.732,24.825 2.599,37.238 0.134,1.919 3.135,1.932 3,0 l 0,0 z"
   id="path244"
   inkscape:connector-curvature="0"
   style="fill:#f8b133" />
		</g>
	</g><g
       id="g246">
		<line
   x1="145.84399"
   y1="162.757"
   x2="103.412"
   y2="184.839"
   id="line248"
   style="fill:none" />
		<g
   id="g250">
			<path
   d="m 145.088,161.462 c -14.145,7.358 -28.289,14.721 -42.433,22.082 -1.717,0.893 -0.2,3.479 1.514,2.59 14.145,-7.36 28.289,-14.721 42.433,-22.082 1.716,-0.893 0.199,-3.482 -1.514,-2.59 l 0,0 z"
   id="path252"
   inkscape:connector-curvature="0"
   style="fill:#f8b133" />
		</g>
	</g><g
       id="g254">
		<line
   x1="103.412"
   y1="184.839"
   x2="103.412"
   y2="169.78999"
   id="line256"
   style="fill:none" />
		<g
   id="g258">
			<path
   d="m 104.912,184.839 c 0,-5.019 0,-10.032 0,-15.049 0,-1.937 -3,-1.937 -3,0 0,5.017 0,10.03 0,15.049 0,1.934 3,1.934 3,0 l 0,0 z"
   id="path260"
   inkscape:connector-curvature="0"
   style="fill:#f8b133" />
		</g>
	</g><g
       id="g262">
		<line
   x1="103.412"
   y1="169.78999"
   x2="145.84399"
   y2="131.58099"
   id="line264"
   style="fill:none" />
		<g
   id="g266">
			<path
   d="m 104.472,170.85 c 14.145,-12.736 28.289,-25.472 42.433,-38.208 1.44,-1.297 -0.688,-3.412 -2.121,-2.121 -14.145,12.736 -28.289,25.474 -42.433,38.208 -1.44,1.297 0.688,3.412 2.121,2.121 l 0,0 z"
   id="path268"
   inkscape:connector-curvature="0"
   style="fill:#f8b133" />
		</g>
	</g><g
       id="g270">
		<line
   x1="162.147"
   y1="105.551"
   x2="165.33"
   y2="131.423"
   id="line272"
   style="fill:none" />
		<g
   id="g274">
			<path
   d="m 160.647,105.551 c 1.061,8.624 2.121,17.249 3.183,25.873 0.233,1.895 3.235,1.917 3,0 -1.062,-8.624 -2.122,-17.249 -3.183,-25.873 -0.233,-1.895 -3.236,-1.917 -3,0 l 0,0 z"
   id="path276"
   inkscape:connector-curvature="0"
   style="fill:#f8b133" />
		</g>
	</g><g
       id="g278">
		<line
   x1="145.84399"
   y1="131.58099"
   x2="149.166"
   y2="105.551"
   id="line280"
   style="fill:none" />
		<g
   id="g282">
			<path
   d="m 147.344,131.581 c 1.107,-8.679 2.214,-17.354 3.321,-26.031 0.244,-1.916 -2.759,-1.892 -3,0 -1.107,8.677 -2.214,17.354 -3.321,26.031 -0.244,1.916 2.759,1.892 3,0 l 0,0 z"
   id="path284"
   inkscape:connector-curvature="0"
   style="fill:#f8b133" />
		</g>
	</g><g
       id="g286">
		<line
   x1="155.65199"
   y1="92.639999"
   x2="149.166"
   y2="105.146"
   id="line288"
   style="fill:none" />
		<g
   id="g290">
			<path
   d="m 154.357,91.883 c -2.162,4.169 -4.324,8.337 -6.486,12.506 -0.889,1.715 1.7,3.232 2.591,1.515 2.162,-4.169 4.324,-8.337 6.486,-12.506 0.889,-1.716 -1.7,-3.233 -2.591,-1.515 l 0,0 z"
   id="path292"
   inkscape:connector-curvature="0"
   style="fill:#f8b133" />
		</g>
	</g><g
       id="g294">
		<line
   x1="155.65199"
   y1="92.639999"
   x2="162.147"
   y2="105.146"
   id="line296"
   style="fill:none" />
		<g
   id="g298">
			<path
   d="m 154.357,93.397 c 2.166,4.168 4.332,8.337 6.496,12.506 0.894,1.719 3.48,0.2 2.59,-1.515 -2.164,-4.168 -4.33,-8.337 -6.493,-12.506 -0.895,-1.717 -3.483,-0.199 -2.593,1.515 l 0,0 z"
   id="path300"
   inkscape:connector-curvature="0"
   style="fill:#f8b133" />
		</g>
	</g><g
       id="g302">
		<line
   x1="155.65199"
   y1="66.404999"
   x2="155.65199"
   y2="94.154999"
   id="line304"
   style="fill:none" />
		<g
   id="g306">
			<path
   d="m 154.671,66.467 c 0,9.25 0,18.5 0,27.75 0,1.059 1.963,0.803 1.963,-0.124 0,-9.25 0,-18.5 0,-27.75 0,-1.059 -1.963,-0.803 -1.963,0.124 l 0,0 z"
   id="path308"
   inkscape:connector-curvature="0"
   style="fill:#f8b133" />
		</g>
	</g></g></g><g
   id="needle"
   inkscape:label="Needle"
   inkscape:groupmode="layer"
   style="display:inline"
   sodipodi:insensitive="true">
	<g
   id="compass"
   inkscape:label="#g8506"
   style="display:inline">
		<line
   id="line5438"
   x1="155.90601"
   y1="15.589"
   x2="155.90601"
   y2="36.375999"
   style="fill:none;stroke:#ffffff;stroke-width:4" />
		<line
   id="line5438_3_"
   x1="119.65"
   y1="20.493"
   x2="125.03"
   y2="40.571999"
   style="fill:none;stroke:#ffffff;stroke-width:4" />
		<line
   id="line5438_4_"
   x1="85.898003"
   y1="34.615002"
   x2="96.291"
   y2="52.617001"
   style="fill:none;stroke:#ffffff;stroke-width:4" />
		<line
   id="line5438_5_"
   x1="56.951"
   y1="56.990002"
   x2="71.650002"
   y2="71.689003"
   style="fill:none;stroke:#ffffff;stroke-width:4" />
		<line
   id="line5438_6_"
   x1="34.610001"
   y1="86.117996"
   x2="52.612"
   y2="96.512001"
   style="fill:none;stroke:#ffffff;stroke-width:4" />
		<line
   id="line5438_7_"
   x1="20.568001"
   y1="120.036"
   x2="40.646999"
   y2="125.416"
   style="fill:none;stroke:#ffffff;stroke-width:4" />
		<line
   id="line5438_8_"
   x1="15.875"
   y1="156.289"
   x2="36.660999"
   y2="156.289"
   style="fill:none;stroke:#ffffff;stroke-width:4" />
		<line
   id="line5438_9_"
   x1="20.724001"
   y1="192.521"
   x2="40.801998"
   y2="187.14101"
   style="fill:none;stroke:#ffffff;stroke-width:4" />
		<line
   id="line5438_10_"
   x1="34.798"
   y1="226.27299"
   x2="52.799999"
   y2="215.88"
   style="fill:none;stroke:#ffffff;stroke-width:4" />
		<line
   id="line5438_11_"
   x1="57.129002"
   y1="255.243"
   x2="71.827003"
   y2="240.545"
   style="fill:none;stroke:#ffffff;stroke-width:4" />
		<line
   id="line5438_12_"
   x1="86.208"
   y1="277.44501"
   x2="96.600998"
   y2="259.44299"
   style="fill:none;stroke:#ffffff;stroke-width:4" />
		<line
   id="line5438_13_"
   x1="120.053"
   y1="291.36301"
   x2="125.433"
   y2="271.284"
   style="fill:none;stroke:#ffffff;stroke-width:4" />
		<line
   id="line5438_14_"
   x1="156.328"
   y1="296.06"
   x2="156.327"
   y2="275.27301"
   style="fill:none;stroke:#ffffff;stroke-width:4" />
		<line
   id="line5438_15_"
   x1="192.603"
   y1="291.19501"
   x2="187.222"
   y2="271.117"
   style="fill:none;stroke:#ffffff;stroke-width:4" />
		<line
   id="line5438_16_"
   x1="226.382"
   y1="277.10699"
   x2="215.987"
   y2="259.10599"
   style="fill:none;stroke:#ffffff;stroke-width:4" />
		<line
   id="line5438_17_"
   x1="255.362"
   y1="254.757"
   x2="240.664"
   y2="240.05901"
   style="fill:none;stroke:#ffffff;stroke-width:4" />
		<line
   id="line5438_18_"
   x1="277.59201"
   y1="225.642"
   x2="259.58899"
   y2="215.25101"
   style="fill:none;stroke:#ffffff;stroke-width:4" />
		<line
   id="line5438_19_"
   x1="291.517"
   y1="191.76801"
   x2="271.43701"
   y2="186.39"
   style="fill:none;stroke:#ffffff;stroke-width:4" />
		<line
   id="line5438_20_"
   x1="296.20901"
   y1="155.43201"
   x2="275.422"
   y2="155.435"
   style="fill:none;stroke:#ffffff;stroke-width:4" />
		<line
   id="line5438_21_"
   x1="291.31699"
   y1="119.125"
   x2="271.23901"
   y2="124.508"
   style="fill:none;stroke:#ffffff;stroke-width:4" />
		<line
   id="line5438_22_"
   x1="277.17899"
   y1="85.322998"
   x2="259.177"
   y2="95.719002"
   style="fill:none;stroke:#ffffff;stroke-width:4" />
		<line
   id="line5438_23_"
   x1="254.772"
   y1="56.333"
   x2="240.076"
   y2="71.033997"
   style="fill:none;stroke:#ffffff;stroke-width:4" />
		<line
   id="line5438_24_"
   x1="225.621"
   y1="34.134998"
   x2="215.229"
   y2="52.138"
   style="fill:none;stroke:#ffffff;stroke-width:4" />
		<line
   id="line5438_25_"
   x1="191.718"
   y1="20.245001"
   x2="186.34"
   y2="40.325001"
   style="fill:none;stroke:#ffffff;stroke-width:4" />
		<line
   id="line5438_26_"
   x1="155.37"
   y1="15.605"
   x2="155.373"
   y2="36.393002"
   style="fill:none;stroke:#ffffff;stroke-width:4" />
		<g
   id="text5556"
   enable-background="new    ">
			<path
   d="M 145.894,66.405 V 39.828 h 0.578 L 164.159,60.2 V 39.828 h 2.619 v 26.575 h -0.596 L 148.64,46.281 v 20.124 h -2.746 z"
   id="path338"
   inkscape:connector-curvature="0"
   style="fill:#f4962a" />
		</g>
		<g
   id="text5570"
   enable-background="new    ">
			<path
   d="m 163.575,248.496 -2.258,1.354 c -1.59,-2.926 -3.426,-4.39 -5.51,-4.39 -0.891,0 -1.728,0.208 -2.511,0.623 -0.783,0.416 -1.379,0.973 -1.789,1.671 -0.409,0.699 -0.614,1.438 -0.614,2.223 0,0.893 0.301,1.766 0.903,2.619 0.831,1.181 2.349,2.602 4.553,4.264 2.216,1.676 3.595,2.886 4.136,3.633 0.939,1.253 1.41,2.606 1.41,4.064 0,1.156 -0.277,2.21 -0.832,3.161 -0.554,0.951 -1.334,1.701 -2.34,2.249 -1.005,0.548 -2.099,0.822 -3.279,0.822 -1.252,0 -2.424,-0.312 -3.514,-0.932 -1.09,-0.62 -2.243,-1.761 -3.459,-3.423 l 2.168,-1.645 c 1,1.324 1.852,2.197 2.556,2.619 0.705,0.422 1.473,0.633 2.304,0.633 1.071,0 1.948,-0.325 2.629,-0.977 0.681,-0.65 1.021,-1.451 1.021,-2.402 0,-0.578 -0.119,-1.139 -0.36,-1.681 -0.24,-0.542 -0.681,-1.132 -1.317,-1.771 -0.351,-0.337 -1.495,-1.224 -3.434,-2.655 -2.3,-1.699 -3.878,-3.21 -4.733,-4.535 -0.855,-1.325 -1.283,-2.656 -1.283,-3.992 0,-1.928 0.731,-3.602 2.195,-5.022 1.463,-1.421 3.243,-2.131 5.338,-2.131 1.615,0 3.078,0.431 4.389,1.291 1.313,0.865 2.524,2.307 3.631,4.33 z"
   id="path341"
   inkscape:connector-curvature="0"
   style="fill:#f4982d" />
		</g>
		<g
   id="text5556_1_"
   enable-background="new    ">
			<path
   d="M 41.329,171.928 V 169.2 l 19.15,-5.431 -19.15,-7.618 V 155.6 l 19.15,-7.53 -19.15,-5.521 v -2.708 l 26.576,7.636 v 0.493 l -20.107,7.886 20.107,8.04 v 0.496 l -26.576,7.536 z"
   id="path344"
   inkscape:connector-curvature="0"
   style="fill:#f4962a" />
		</g>
		<g
   id="text5556_2_"
   enable-background="new    ">
			<path
   d="m 270.981,148.766 v 15.229 h -2.603 v -12.574 h -8.329 v 12.466 h -2.602 v -12.466 h -10.442 v 12.466 h -2.603 v -15.122 l 26.579,0.001 0,0 z"
   id="path347"
   inkscape:connector-curvature="0"
   style="fill:#f4962a" />
		</g>
		<line
   id="line5438_1_"
   x1="155.905"
   y1="274.01401"
   x2="155.905"
   y2="294.802"
   style="fill:none;stroke:#ffffff;stroke-width:4" />
		<g
   id="text5556_3_"
   enable-background="new    ">
			<path
   d="m 208.842,57.963 -1.204,-0.696 c 0.781,-0.848 1.635,-1.354 2.559,-1.521 0.926,-0.166 1.812,-0.005 2.656,0.483 0.615,0.355 1.109,0.827 1.48,1.416 0.37,0.589 0.564,1.206 0.58,1.853 0.018,0.646 -0.125,1.228 -0.426,1.747 -0.586,1.018 -1.559,1.53 -2.914,1.542 0.436,0.558 0.705,1.164 0.814,1.817 0.151,0.925 0.004,1.773 -0.445,2.551 -0.387,0.671 -0.933,1.207 -1.637,1.609 -0.703,0.404 -1.457,0.596 -2.261,0.575 -0.802,-0.021 -1.581,-0.248 -2.336,-0.685 -1.019,-0.588 -1.696,-1.371 -2.039,-2.351 -0.342,-0.979 -0.289,-2.097 0.158,-3.354 l 1.155,0.668 c -0.237,0.884 -0.267,1.605 -0.084,2.17 0.236,0.714 0.732,1.29 1.488,1.726 0.856,0.495 1.693,0.636 2.51,0.421 0.816,-0.214 1.424,-0.667 1.822,-1.355 0.268,-0.461 0.387,-0.969 0.358,-1.52 -0.028,-0.553 -0.202,-1.057 -0.521,-1.512 -0.32,-0.455 -0.924,-0.972 -1.812,-1.549 l 0.626,-1.084 c 0.54,0.313 1.089,0.501 1.645,0.566 0.553,0.067 1.016,0.012 1.387,-0.168 0.371,-0.179 0.658,-0.441 0.859,-0.79 0.297,-0.515 0.348,-1.076 0.153,-1.688 -0.194,-0.612 -0.603,-1.1 -1.229,-1.46 -0.508,-0.295 -1.029,-0.404 -1.564,-0.33 -0.531,0.076 -1.125,0.381 -1.778,0.919 z"
   id="path351"
   inkscape:connector-curvature="0"
   style="fill:#ffffff" />
		</g>
		<g
   id="text5556_4_"
   enable-background="new    ">
			<path
   d="m 257.56,98.427 -0.072,1.339 -6.682,-0.403 c 0.393,0.346 0.695,0.705 0.912,1.081 0.542,0.938 0.663,1.932 0.363,2.978 -0.299,1.046 -0.943,1.854 -1.936,2.427 -0.681,0.393 -1.387,0.59 -2.117,0.59 -0.732,0.002 -1.428,-0.195 -2.088,-0.591 -0.66,-0.395 -1.185,-0.927 -1.57,-1.597 -0.375,-0.649 -0.564,-1.343 -0.572,-2.078 -0.008,-0.736 0.182,-1.426 0.566,-2.07 0.385,-0.644 0.902,-1.151 1.551,-1.526 0.482,-0.278 1.045,-0.474 1.691,-0.587 0.646,-0.11 1.488,-0.131 2.531,-0.06 l 7.423,0.497 z m -7.039,2.334 c -0.396,-0.688 -0.979,-1.133 -1.742,-1.338 -0.766,-0.205 -1.492,-0.109 -2.185,0.291 -0.686,0.395 -1.13,0.976 -1.335,1.741 -0.205,0.765 -0.107,1.49 0.289,2.179 0.396,0.686 0.977,1.133 1.742,1.338 0.765,0.205 1.49,0.11 2.175,-0.285 0.692,-0.398 1.14,-0.979 1.345,-1.747 0.203,-0.765 0.107,-1.492 -0.289,-2.179 z"
   id="path354"
   inkscape:connector-curvature="0"
   style="fill:#ffffff" />
		</g>
		<g
   id="text5556_5_"
   enable-background="new    ">
			<path
   d="m 259.69,205.857 -1.34,2.322 -11.817,-6.823 0.677,-1.173 10.662,6.155 1.07,-1.856 0.748,1.375 z"
   id="path357"
   inkscape:connector-curvature="0"
   style="fill:#ffffff" />
			<path
   d="m 251.39,211.701 0.654,-1.134 c 1.146,0.704 1.879,1.647 2.196,2.827 0.317,1.178 0.157,2.316 -0.476,3.415 -0.629,1.087 -1.488,1.766 -2.576,2.031 -1.092,0.267 -2.112,0.125 -3.066,-0.426 -0.67,-0.388 -1.206,-0.909 -1.607,-1.569 -0.4,-0.658 -0.836,-1.74 -1.306,-3.242 l -1.47,-4.773 -3.148,5.451 -1.141,-0.657 4.634,-8.026 2.272,7.333 c 0.453,1.482 0.836,2.498 1.149,3.047 0.315,0.551 0.736,0.978 1.263,1.28 0.664,0.384 1.379,0.466 2.146,0.248 0.767,-0.218 1.354,-0.688 1.771,-1.404 0.437,-0.755 0.547,-1.528 0.332,-2.32 -0.213,-0.792 -0.756,-1.486 -1.627,-2.081 z"
   id="path359"
   inkscape:connector-curvature="0"
   style="fill:#ffffff" />
		</g>
		<g
   id="text5556_6_"
   enable-background="new    ">
			<path
   d="m 218.808,248.817 -2.322,1.342 -6.821,-11.818 1.172,-0.678 6.156,10.662 1.854,-1.072 -0.039,1.564 z"
   id="path362"
   inkscape:connector-curvature="0"
   style="fill:#ffffff" />
			<path
   d="m 204.644,256.994 -0.648,-1.124 4.199,-2.427 -1.27,-3.563 c -0.427,0.446 -0.846,0.789 -1.258,1.025 -1.076,0.621 -2.171,0.773 -3.285,0.456 -1.113,-0.317 -1.996,-1.039 -2.645,-2.164 -0.449,-0.774 -0.68,-1.592 -0.695,-2.445 -0.016,-0.856 0.184,-1.633 0.598,-2.333 0.413,-0.699 1.021,-1.281 1.824,-1.745 0.96,-0.554 1.938,-0.729 2.936,-0.521 0.998,0.205 1.83,0.737 2.496,1.597 l -1.213,0.7 c -0.354,-0.403 -0.722,-0.685 -1.104,-0.844 -0.38,-0.158 -0.803,-0.221 -1.264,-0.186 -0.461,0.035 -0.892,0.166 -1.287,0.396 -0.777,0.448 -1.273,1.128 -1.491,2.038 -0.218,0.909 -0.071,1.807 0.438,2.688 0.459,0.798 1.086,1.299 1.875,1.506 0.791,0.207 1.606,0.065 2.447,-0.418 0.696,-0.402 1.418,-1.103 2.165,-2.096 l 2.297,6.503 -5.115,2.957 z"
   id="path364"
   inkscape:connector-curvature="0"
   style="fill:#ffffff" />
		</g>
		<g
   id="text5556_7_"
   enable-background="new    ">
			<path
   d="m 108.979,255.794 1.133,0.653 c -0.705,1.146 -1.648,1.88 -2.827,2.195 -1.18,0.317 -2.318,0.158 -3.416,-0.476 -1.087,-0.628 -1.764,-1.487 -2.031,-2.577 -0.267,-1.09 -0.125,-2.111 0.426,-3.065 0.387,-0.67 0.91,-1.206 1.569,-1.606 0.659,-0.401 1.74,-0.837 3.243,-1.307 l 4.774,-1.47 -5.452,-3.146 0.659,-1.143 8.026,4.634 -7.333,2.273 c -1.482,0.452 -2.498,0.836 -3.047,1.15 -0.55,0.314 -0.977,0.734 -1.28,1.262 -0.384,0.664 -0.466,1.379 -0.248,2.146 0.219,0.767 0.687,1.356 1.404,1.771 0.755,0.436 1.529,0.547 2.321,0.332 0.79,-0.214 1.484,-0.756 2.079,-1.626 z"
   id="path367"
   inkscape:connector-curvature="0"
   style="fill:#ffffff" />
			<path
   d="m 96.585,253.566 -2.322,-1.341 6.823,-11.817 1.173,0.678 -6.155,10.661 1.856,1.071 -1.375,0.748 z"
   id="path369"
   inkscape:connector-curvature="0"
   style="fill:#ffffff" />
		</g>
		<g
   id="text5556_8_"
   enable-background="new    ">
			<path
   d="m 63.988,218.966 0.654,1.133 c -1.184,0.641 -2.366,0.803 -3.546,0.488 -1.18,-0.315 -2.086,-1.021 -2.72,-2.12 -0.628,-1.087 -0.785,-2.169 -0.471,-3.247 0.314,-1.077 0.948,-1.892 1.902,-2.442 0.67,-0.387 1.391,-0.589 2.163,-0.606 0.771,-0.02 1.925,0.146 3.461,0.491 l 4.869,1.112 -3.148,-5.452 1.141,-0.658 4.634,8.026 -7.486,-1.698 c -1.51,-0.35 -2.582,-0.525 -3.215,-0.526 -0.634,-0.003 -1.214,0.147 -1.739,0.452 -0.665,0.384 -1.094,0.962 -1.288,1.733 -0.193,0.772 -0.083,1.519 0.331,2.235 0.436,0.755 1.051,1.237 1.844,1.448 0.792,0.209 1.663,0.087 2.614,-0.369 z"
   id="path372"
   inkscape:connector-curvature="0"
   style="fill:#ffffff" />
			<path
   d="m 51.783,207.049 -0.138,-0.239 8.243,-4.76 -0.826,-1.43 1.125,-0.649 0.825,1.43 2.748,-1.587 0.678,1.174 -2.748,1.586 3.266,5.656 -13.173,-1.181 z m 8.782,-3.825 -4.964,2.865 6.985,0.635 -2.021,-3.5 z"
   id="path374"
   inkscape:connector-curvature="0"
   style="fill:#ffffff" />
		</g>
		<g
   id="text5556_9_"
   enable-background="new    ">
			<path
   d="m 54.858,108.212 -0.696,1.205 c -0.848,-0.782 -1.355,-1.636 -1.521,-2.561 -0.166,-0.924 -0.005,-1.81 0.484,-2.655 0.355,-0.616 0.827,-1.109 1.416,-1.48 0.589,-0.371 1.206,-0.564 1.852,-0.581 0.646,-0.017 1.228,0.125 1.747,0.425 1.018,0.587 1.531,1.56 1.542,2.915 0.558,-0.435 1.164,-0.706 1.818,-0.813 0.925,-0.152 1.773,-0.004 2.551,0.444 0.67,0.387 1.207,0.933 1.609,1.637 0.404,0.705 0.596,1.458 0.575,2.26 -0.021,0.802 -0.248,1.582 -0.684,2.336 -0.588,1.018 -1.372,1.698 -2.351,2.039 -0.979,0.342 -2.097,0.29 -3.354,-0.157 l 0.668,-1.157 c 0.884,0.239 1.606,0.268 2.17,0.085 0.714,-0.236 1.29,-0.732 1.726,-1.488 0.495,-0.856 0.636,-1.693 0.421,-2.511 -0.214,-0.815 -0.667,-1.424 -1.356,-1.822 -0.461,-0.267 -0.968,-0.386 -1.519,-0.358 -0.553,0.028 -1.057,0.202 -1.512,0.521 -0.455,0.319 -0.972,0.923 -1.549,1.811 l -1.084,-0.626 c 0.313,-0.541 0.501,-1.088 0.567,-1.643 0.067,-0.555 0.011,-1.018 -0.168,-1.389 -0.179,-0.371 -0.442,-0.657 -0.79,-0.857 -0.515,-0.297 -1.076,-0.35 -1.688,-0.155 -0.612,0.193 -1.099,0.603 -1.46,1.229 -0.295,0.51 -0.404,1.031 -0.33,1.566 0.074,0.534 0.378,1.127 0.916,1.78 z"
   id="path377"
   inkscape:connector-curvature="0"
   style="fill:#ffffff" />
			<path
   d="m 62.342,102.581 c -1.561,-0.9 -2.668,-1.764 -3.326,-2.59 -0.658,-0.826 -1.031,-1.673 -1.118,-2.536 -0.086,-0.864 0.089,-1.675 0.524,-2.43 0.442,-0.766 1.063,-1.332 1.864,-1.697 0.8,-0.367 1.747,-0.476 2.84,-0.327 1.093,0.149 2.384,0.652 3.872,1.513 1.484,0.856 2.562,1.716 3.234,2.58 0.674,0.863 1.053,1.738 1.137,2.622 0.086,0.885 -0.092,1.711 -0.534,2.477 -0.437,0.755 -1.046,1.311 -1.829,1.665 -0.783,0.355 -1.703,0.454 -2.76,0.298 -1.056,-0.157 -2.357,-0.682 -3.904,-1.575 z m 0.664,-1.106 c 1.335,0.771 2.413,1.234 3.233,1.391 0.821,0.156 1.543,0.104 2.166,-0.158 0.623,-0.263 1.084,-0.652 1.384,-1.172 0.303,-0.525 0.414,-1.114 0.33,-1.771 -0.082,-0.655 -0.401,-1.3 -0.957,-1.935 -0.672,-0.78 -1.6,-1.514 -2.784,-2.197 -1.19,-0.688 -2.24,-1.118 -3.15,-1.293 -0.91,-0.175 -1.673,-0.133 -2.293,0.127 -0.618,0.261 -1.076,0.647 -1.373,1.162 -0.304,0.524 -0.412,1.119 -0.327,1.782 0.086,0.664 0.4,1.313 0.944,1.948 0.544,0.637 1.487,1.343 2.827,2.116 z"
   id="path379"
   inkscape:connector-curvature="0"
   style="fill:#ffffff" />
		</g>
		<g
   id="text5556_10_"
   enable-background="new    ">
			<path
   d="m 91.675,63.346 -1.205,0.696 c -0.344,-1.103 -0.356,-2.095 -0.038,-2.979 0.318,-0.884 0.9,-1.568 1.747,-2.058 0.616,-0.355 1.271,-0.547 1.968,-0.573 0.694,-0.027 1.326,0.114 1.893,0.422 0.568,0.31 1.001,0.724 1.301,1.241 0.588,1.018 0.547,2.116 -0.121,3.296 0.699,-0.098 1.36,-0.029 1.981,0.204 0.876,0.331 1.538,0.883 1.987,1.661 0.386,0.669 0.578,1.411 0.575,2.222 -0.003,0.813 -0.213,1.562 -0.632,2.245 -0.419,0.686 -1.006,1.246 -1.761,1.682 -1.019,0.589 -2.036,0.785 -3.056,0.591 -1.019,-0.193 -1.96,-0.798 -2.824,-1.813 l 1.156,-0.668 c 0.646,0.649 1.258,1.034 1.836,1.158 0.738,0.15 1.484,0.01 2.24,-0.426 0.856,-0.495 1.396,-1.149 1.619,-1.963 0.223,-0.814 0.135,-1.567 -0.264,-2.258 -0.267,-0.461 -0.646,-0.816 -1.137,-1.068 -0.492,-0.251 -1.016,-0.354 -1.568,-0.307 -0.555,0.05 -1.304,0.314 -2.247,0.794 L 94.5,64.362 c 0.541,-0.313 0.979,-0.691 1.313,-1.14 0.336,-0.446 0.518,-0.875 0.549,-1.286 0.031,-0.41 -0.055,-0.79 -0.256,-1.138 -0.297,-0.514 -0.758,-0.84 -1.384,-0.979 -0.626,-0.139 -1.253,-0.026 -1.88,0.334 -0.509,0.294 -0.865,0.691 -1.068,1.191 -0.206,0.501 -0.239,1.168 -0.099,2.002 z"
   id="path382"
   inkscape:connector-curvature="0"
   style="fill:#ffffff" />
			<path
   d="m 100.793,58.081 -1.205,0.695 c -0.344,-1.102 -0.355,-2.094 -0.037,-2.978 0.318,-0.884 0.9,-1.569 1.747,-2.06 0.616,-0.354 1.271,-0.547 1.967,-0.572 0.695,-0.027 1.326,0.113 1.894,0.422 0.568,0.308 1.001,0.722 1.301,1.241 0.588,1.018 0.547,2.115 -0.122,3.296 0.7,-0.099 1.36,-0.029 1.981,0.204 0.877,0.331 1.539,0.883 1.987,1.659 0.386,0.67 0.579,1.411 0.575,2.223 -0.002,0.813 -0.213,1.561 -0.631,2.245 -0.42,0.685 -1.006,1.246 -1.762,1.682 -1.018,0.588 -2.035,0.784 -3.055,0.59 -1.019,-0.192 -1.96,-0.797 -2.824,-1.813 l 1.156,-0.668 c 0.646,0.648 1.258,1.033 1.836,1.157 0.737,0.151 1.484,0.011 2.24,-0.426 0.855,-0.495 1.396,-1.148 1.619,-1.963 0.223,-0.813 0.135,-1.566 -0.264,-2.257 -0.267,-0.461 -0.646,-0.817 -1.138,-1.069 -0.491,-0.252 -1.015,-0.354 -1.569,-0.306 -0.553,0.049 -1.302,0.313 -2.246,0.794 l -0.625,-1.084 c 0.541,-0.313 0.978,-0.692 1.313,-1.14 0.336,-0.446 0.518,-0.875 0.549,-1.286 0.031,-0.411 -0.055,-0.79 -0.256,-1.14 -0.297,-0.514 -0.758,-0.839 -1.384,-0.978 -0.627,-0.139 -1.253,-0.027 -1.88,0.334 -0.51,0.294 -0.865,0.691 -1.069,1.191 -0.204,0.5 -0.237,1.173 -0.098,2.007 z"
   id="path384"
   inkscape:connector-curvature="0"
   style="fill:#ffffff" />
		</g>
	</g>
	<g
   id="g5908"
   inkscape:label="#Background">
		<path
   id="path5916"
   inkscape:connector-curvature="0"
   d="m 311.81,297.638 c 0,7.825 -6.346,14.172 -14.172,14.172 H 14.174 C 6.346,311.81 0,305.464 0,297.638 V 14.174 C 0,6.347 6.346,0.001 14.174,0.001 h 283.464 c 7.827,0 14.173,6.347 14.173,14.173 l -10e-4,283.464 0,0 z"
   style="fill:none;stroke:#3b3131;stroke-width:2;stroke-opacity:0" />
	</g>
</g>
</svg>