<?xml version="1.0" encoding="UTF-8" standalone="no"?>
<!-- Created with Inkscape (http://www.inkscape.org/) -->
<svg id="svg2" xmlns:rdf="http://www.w3.org/1999/02/22-rdf-syntax-ns#" xmlns="http://www.w3.org/2000/svg" height="326.71" width="326.71" version="1.1" xmlns:cc="http://creativecommons.org/ns#" xmlns:xlink="http://www.w3.org/1999/xlink" xmlns:dc="http://purl.org/dc/elements/1.1/">
 <defs id="defs4">
  <linearGradient id="linearGradient4512">
   <stop id="stop4514" stop-color="#FFF" stop-opacity="0.91860467" offset="0"/>
   <stop id="stop4516" stop-color="#FFF" stop-opacity="0" offset="1"/>
  </linearGradient>
  <linearGradient id="linearGradient3755">
   <stop id="stop3757" stop-color="#f5f5f5" offset="0"/>
   <stop id="stop3759" stop-color="#afafaf" stop-opacity="0.68627453" offset="1"/>
  </linearGradient>
  <filter id="filter4574" height="1.2810307" width="1.1724813" y="-0.14051528" x="-0.086240664" color-interpolation-filters="sRGB">
   <feGaussianBlur id="feGaussianBlur4576" stdDeviation="7.6954074"/>
  </filter>
  <linearGradient id="linearGradient5730">
   <stop id="stop5732" stop-color="#f5002f" offset="0"/>
   <stop id="stop5734" stop-color="#e4002c" stop-opacity="0.57267439" offset="1"/>
  </linearGradient>
  <linearGradient id="linearGradient5808">
   <stop id="stop5810" stop-color="#920400" offset="0"/>
   <stop id="stop5812" stop-color="#f83535" stop-opacity="0.13372093" offset="1"/>
  </linearGradient>
  <filter id="filter5319-0" color-interpolation-filters="sRGB">
   <feFlood id="feFlood5321-0" result="flood" flood-opacity="0.893" flood-color="rgb(0,0,0)"/>
   <feComposite id="feComposite5323-6" operator="in" result="composite1" in2="SourceGraphic" in="flood"/>
   <feGaussianBlur id="feGaussianBlur5325-1" stdDeviation="1.6" result="blur"/>
   <feOffset id="feOffset5327-6" result="offset" dx="1" dy="4"/>
   <feComposite id="feComposite5329-9" operator="over" result="composite2" in2="offset" in="SourceGraphic"/>
  </filter>
  <linearGradient id="linearGradient4551" x1="268.03" xlink:href="#linearGradient3755" gradientUnits="userSpaceOnUse" y1="397.61" gradientTransform="translate(-220.72449,-349.00504)" x2="498.5" y2="628.09"/>
  <linearGradient id="linearGradient4553" x1="268.03" xlink:href="#linearGradient3755" gradientUnits="userSpaceOnUse" y1="397.61" gradientTransform="matrix(-0.92101134,0,0,-0.92101134,517.10034,635.24806)" x2="498.5" y2="628.09"/>
  <radialGradient id="radialGradient4831" gradientUnits="userSpaceOnUse" cy="335.92" cx="261.48" gradientTransform="matrix(0.94251543,0.25964467,-0.25239577,0.91620177,-116.38092,-360.24685)" r="125.55">
   <stop id="stop4558" stop-color="#FFF" stop-opacity="0.91860467" offset="0"/>
   <stop id="stop4560" stop-color="#FFF" stop-opacity="0" offset="1"/>
  </radialGradient>
  <linearGradient id="linearGradient5816" x1="254.54" xlink:href="#linearGradient4512" gradientUnits="userSpaceOnUse" y1="384.13" gradientTransform="matrix(0.79719925,0,0,0.79719925,-146.80825,-253.07352)" x2="471.35" y2="600.94"/>
  <radialGradient id="radialGradient5819" xlink:href="#linearGradient5730" gradientUnits="userSpaceOnUse" cy="173.02" cx="348.7" gradientTransform="matrix(2.0188343,0,0,1.8555478,-461.18664,-425.84208)" r="1.099"/>
  <radialGradient id="radialGradient5821" xlink:href="#linearGradient5808" gradientUnits="userSpaceOnUse" cy="173.02" cx="348.7" gradientTransform="matrix(2.0188343,0,0,1.9066081,-461.18664,-434.67659)" r="1.599"/>
  <radialGradient id="radialGradient5824" xlink:href="#linearGradient5730" gradientUnits="userSpaceOnUse" cy="173.02" cx="348.7" gradientTransform="matrix(2.0188343,0,0,1.8555478,-662.65442,-215.51771)" r="1.099"/>
  <radialGradient id="radialGradient5826" xlink:href="#linearGradient5808" gradientUnits="userSpaceOnUse" cy="173.02" cx="348.7" gradientTransform="matrix(2.0188343,0,0,1.9066081,-662.65442,-224.35222)" r="1.599"/>
  <radialGradient id="radialGradient5829" xlink:href="#linearGradient5730" gradientUnits="userSpaceOnUse" cy="173.02" cx="348.7" gradientTransform="matrix(2.0188343,0,0,1.8555479,-644.8124,-219.26192)" r="1.099"/>
  <radialGradient id="radialGradient5831" xlink:href="#linearGradient5808" gradientUnits="userSpaceOnUse" cy="173.02" cx="348.7" gradientTransform="matrix(2.0188343,0,0,1.9066081,-644.8124,-228.09643)" r="1.599"/>
  <radialGradient id="radialGradient5834" xlink:href="#linearGradient5730" gradientUnits="userSpaceOnUse" cy="173.02" cx="348.7" gradientTransform="matrix(2.0188343,0,0,1.8555479,-627.91998,-224.11988)" r="1.099"/>
  <radialGradient id="radialGradient5836" xlink:href="#linearGradient5808" gradientUnits="userSpaceOnUse" cy="173.02" cx="348.7" gradientTransform="matrix(2.0188343,0,0,1.9066081,-627.91998,-232.95439)" r="1.599"/>
  <radialGradient id="radialGradient5839" xlink:href="#linearGradient5730" gradientUnits="userSpaceOnUse" cy="173.02" cx="348.7" gradientTransform="matrix(2.0188343,0,0,1.8555478,-593.3605,-238.42414)" r="1.099"/>
  <radialGradient id="radialGradient5841" xlink:href="#linearGradient5808" gradientUnits="userSpaceOnUse" cy="173.02" cx="348.7" gradientTransform="matrix(2.0188343,0,0,1.9066081,-593.3605,-247.25865)" r="1.599"/>
  <radialGradient id="radialGradient5844" xlink:href="#linearGradient5730" gradientUnits="userSpaceOnUse" cy="173.02" cx="348.7" gradientTransform="matrix(2.0188343,0,0,1.8555478,-577.33909,-247.30951)" r="1.099"/>
  <radialGradient id="radialGradient5846" xlink:href="#linearGradient5808" gradientUnits="userSpaceOnUse" cy="173.02" cx="348.7" gradientTransform="matrix(2.0188343,0,0,1.9066081,-577.33909,-256.14402)" r="1.599"/>
  <radialGradient id="radialGradient5849" xlink:href="#linearGradient5730" gradientUnits="userSpaceOnUse" cy="173.02" cx="348.7" gradientTransform="matrix(2.0188343,0,0,1.8555478,-464.08246,-408.23886)" r="1.099"/>
  <radialGradient id="radialGradient5851" xlink:href="#linearGradient5808" gradientUnits="userSpaceOnUse" cy="173.02" cx="348.7" gradientTransform="matrix(2.0188343,0,0,1.9066081,-464.08246,-417.07337)" r="1.599"/>
  <radialGradient id="radialGradient5854" xlink:href="#linearGradient5730" gradientUnits="userSpaceOnUse" cy="173.02" cx="348.7" gradientTransform="matrix(2.0188343,0,0,1.8555479,-480.89741,-356.05874)" r="1.099"/>
  <radialGradient id="radialGradient5856" xlink:href="#linearGradient5808" gradientUnits="userSpaceOnUse" cy="173.02" cx="348.7" gradientTransform="matrix(2.0188343,0,0,1.9066081,-480.89741,-364.89325)" r="1.599"/>
  <radialGradient id="radialGradient5859" xlink:href="#linearGradient5730" gradientUnits="userSpaceOnUse" cy="173.02" cx="348.7" gradientTransform="matrix(2.0188342,0,0,1.8555478,-489.149,-339.48008)" r="1.099"/>
  <radialGradient id="radialGradient5861" xlink:href="#linearGradient5808" gradientUnits="userSpaceOnUse" cy="173.02" cx="348.7" gradientTransform="matrix(2.0188342,0,0,1.906608,-489.149,-348.31459)" r="1.599"/>
  <radialGradient id="radialGradient5864" xlink:href="#linearGradient5730" gradientUnits="userSpaceOnUse" cy="173.02" cx="348.7" gradientTransform="matrix(2.0188343,0,0,1.8555479,-508.8117,-309.05498)" r="1.099"/>
  <radialGradient id="radialGradient5866" xlink:href="#linearGradient5808" gradientUnits="userSpaceOnUse" cy="173.02" cx="348.7" gradientTransform="matrix(2.0188343,0,0,1.9066081,-508.8117,-317.8895)" r="1.599"/>
  <radialGradient id="radialGradient5869" xlink:href="#linearGradient5730" gradientUnits="userSpaceOnUse" cy="173.02" cx="348.7" gradientTransform="matrix(2.0188343,0,0,1.8555478,-520.83048,-294.39053)" r="1.099"/>
  <radialGradient id="radialGradient5871" xlink:href="#linearGradient5808" gradientUnits="userSpaceOnUse" cy="173.02" cx="348.7" gradientTransform="matrix(2.0188343,0,0,1.9066081,-520.83048,-303.22504)" r="1.599"/>
  <radialGradient id="radialGradient5874" xlink:href="#linearGradient5730" gradientUnits="userSpaceOnUse" cy="173.02" cx="348.7" gradientTransform="matrix(2.0188343,0,0,1.8555479,-561.68239,-257.6144)" r="1.099"/>
  <radialGradient id="radialGradient5876" xlink:href="#linearGradient5808" gradientUnits="userSpaceOnUse" cy="173.02" cx="348.7" gradientTransform="matrix(2.0188343,0,0,1.9066081,-561.68239,-266.44891)" r="1.599"/>
  <radialGradient id="radialGradient5879" xlink:href="#linearGradient5730" gradientUnits="userSpaceOnUse" cy="173.02" cx="348.7" gradientTransform="matrix(2.0188343,0,0,1.8555478,-459.54201,-444.35299)" r="1.099"/>
  <radialGradient id="radialGradient5881" xlink:href="#linearGradient5808" gradientUnits="userSpaceOnUse" cy="173.02" cx="348.7" gradientTransform="matrix(2.0188343,0,0,1.9066081,-459.54201,-453.1875)" r="1.599"/>
  <radialGradient id="radialGradient5884" xlink:href="#linearGradient5730" gradientUnits="userSpaceOnUse" cy="173.02" cx="348.7" gradientTransform="matrix(2.0188343,0,0,1.8555478,-699.03579,-212.05601)" r="1.099"/>
  <radialGradient id="radialGradient5886" xlink:href="#linearGradient5808" gradientUnits="userSpaceOnUse" cy="173.02" cx="348.7" gradientTransform="matrix(2.0188343,0,0,1.9066081,-699.03579,-220.89052)" r="1.599"/>
  <radialGradient id="radialGradient5889" xlink:href="#linearGradient5730" gradientUnits="userSpaceOnUse" cy="173.02" cx="348.7" gradientTransform="matrix(2.0188343,0,0,1.8555478,-533.89695,-280.75029)" r="1.099"/>
  <radialGradient id="radialGradient5891" xlink:href="#linearGradient5808" gradientUnits="userSpaceOnUse" cy="173.02" cx="348.7" gradientTransform="matrix(2.0188343,0,0,1.906608,-533.89695,-289.5848)" r="1.599"/>
  <radialGradient id="radialGradient5894" xlink:href="#linearGradient5730" gradientUnits="userSpaceOnUse" cy="173.02" cx="348.7" gradientTransform="matrix(2.0188343,0,0,1.8555478,-717.23043,-212.36637)" r="1.099"/>
  <radialGradient id="radialGradient5896" xlink:href="#linearGradient5808" gradientUnits="userSpaceOnUse" cy="173.02" cx="348.7" gradientTransform="matrix(2.0188343,0,0,1.9066081,-717.23043,-221.20089)" r="1.599"/>
  <radialGradient id="radialGradient5899" xlink:href="#linearGradient5730" gradientUnits="userSpaceOnUse" cy="173.02" cx="348.7" gradientTransform="matrix(2.0188343,0,0,1.8555478,-770.38029,-221.19131)" r="1.099"/>
  <radialGradient id="radialGradient5901" xlink:href="#linearGradient5808" gradientUnits="userSpaceOnUse" cy="173.02" cx="348.7" gradientTransform="matrix(2.0188343,0,0,1.9066081,-770.38029,-230.02582)" r="1.599"/>
  <radialGradient id="radialGradient5904" xlink:href="#linearGradient5730" gradientUnits="userSpaceOnUse" cy="173.02" cx="348.7" gradientTransform="matrix(2.0188343,0,0,1.8555478,-474.20909,-372.43027)" r="1.099"/>
  <radialGradient id="radialGradient5906" xlink:href="#linearGradient5808" gradientUnits="userSpaceOnUse" cy="173.02" cx="348.7" gradientTransform="matrix(2.0188343,0,0,1.9066081,-474.20909,-381.26478)" r="1.599"/>
  <radialGradient id="radialGradient5909" xlink:href="#linearGradient5730" gradientUnits="userSpaceOnUse" cy="173.02" cx="348.7" gradientTransform="matrix(2.0188343,0,0,1.8555478,-460.37293,-480.38238)" r="1.099"/>
  <radialGradient id="radialGradient5911" xlink:href="#linearGradient5808" gradientUnits="userSpaceOnUse" cy="173.02" cx="348.7" gradientTransform="matrix(2.0188343,0,0,1.9066081,-460.37293,-489.21689)" r="1.599"/>
  <radialGradient id="radialGradient5914" xlink:href="#linearGradient5730" gradientUnits="userSpaceOnUse" cy="173.02" cx="348.7" gradientTransform="matrix(2.0188343,0,0,1.8555478,-462.81032,-498.459)" r="1.099"/>
  <radialGradient id="radialGradient5916" xlink:href="#linearGradient5808" gradientUnits="userSpaceOnUse" cy="173.02" cx="348.7" gradientTransform="matrix(2.0188343,0,0,1.9066081,-462.81032,-507.29351)" r="1.599"/>
  <radialGradient id="radialGradient5919" xlink:href="#linearGradient5730" gradientUnits="userSpaceOnUse" cy="173.02" cx="348.7" gradientTransform="matrix(2.0188343,0,0,1.8555479,-466.51948,-516.03303)" r="1.099"/>
  <radialGradient id="radialGradient5921" xlink:href="#linearGradient5808" gradientUnits="userSpaceOnUse" cy="173.02" cx="348.7" gradientTransform="matrix(2.0188343,0,0,1.9066081,-466.51948,-524.86754)" r="1.599"/>
  <radialGradient id="radialGradient5924" xlink:href="#linearGradient5730" gradientUnits="userSpaceOnUse" cy="173.02" cx="348.7" gradientTransform="matrix(2.0188343,0,0,1.8555478,-804.14342,-233.45035)" r="1.099"/>
  <radialGradient id="radialGradient5926" xlink:href="#linearGradient5808" gradientUnits="userSpaceOnUse" cy="173.02" cx="348.7" gradientTransform="matrix(2.0188343,0,0,1.9066081,-804.14342,-242.28486)" r="1.599"/>
  <radialGradient id="radialGradient5929" xlink:href="#linearGradient5730" gradientUnits="userSpaceOnUse" cy="173.02" cx="348.7" gradientTransform="matrix(2.0188342,0,0,1.8555478,-735.26366,-214.01639)" r="1.099"/>
  <radialGradient id="radialGradient5931" xlink:href="#linearGradient5808" gradientUnits="userSpaceOnUse" cy="173.02" cx="348.7" gradientTransform="matrix(2.0188342,0,0,1.906608,-735.26366,-222.8509)" r="1.599"/>
  <radialGradient id="radialGradient5934" xlink:href="#linearGradient5730" gradientUnits="userSpaceOnUse" cy="178.61" cx="348.7" gradientTransform="matrix(1.9046733,-0.6692619,2.7254411,7.7564178,-1028.601,-1087.3506)" r="2.1504"/>
  <radialGradient id="radialGradient5936" xlink:href="#linearGradient5808" gradientUnits="userSpaceOnUse" cy="178.61" cx="348.7" gradientTransform="matrix(1.9046733,-0.6692619,2.3375417,6.6524829,-959.31827,-890.17674)" r="2.6504"/>
  <radialGradient id="radialGradient5939" xlink:href="#linearGradient5730" gradientUnits="userSpaceOnUse" cy="178.61" cx="348.7" gradientTransform="matrix(0.8101572,1.849145,-7.5302895,3.2992103,1340.0246,-1101.9621)" r="2.1504"/>
  <radialGradient id="radialGradient5941" xlink:href="#linearGradient5808" gradientUnits="userSpaceOnUse" cy="178.61" cx="348.7" gradientTransform="matrix(0.8101572,1.849145,-6.4585383,2.829649,1148.5991,-1018.0937)" r="2.6504"/>
  <radialGradient id="radialGradient5944" xlink:href="#linearGradient5730" gradientUnits="userSpaceOnUse" cy="173.02" cx="348.7" gradientTransform="matrix(2.0188343,0,0,1.8555478,-787.62824,-226.75189)" r="1.099"/>
  <radialGradient id="radialGradient5946" xlink:href="#linearGradient5808" gradientUnits="userSpaceOnUse" cy="173.02" cx="348.7" gradientTransform="matrix(2.0188343,0,0,1.9066081,-787.62824,-235.5864)" r="1.599"/>
  <radialGradient id="radialGradient5949" xlink:href="#linearGradient5730" gradientUnits="userSpaceOnUse" cy="175.16" cx="348.7" gradientTransform="matrix(2.0188342,0,0,4.393935,-459.29826,-906.86326)" r="1.7"/>
  <radialGradient id="radialGradient5951" xlink:href="#linearGradient5808" gradientUnits="userSpaceOnUse" cy="175.16" cx="348.7" gradientTransform="matrix(2.0188342,0,0,3.8541393,-459.29826,-812.31328)" r="2.2"/>
  <radialGradient id="radialGradient5954" xlink:href="#linearGradient5730" gradientUnits="userSpaceOnUse" cy="175.16" cx="348.7" gradientTransform="matrix(2.0188343,0,0,4.393935,-821.0332,-686.09587)" r="1.7"/>
  <radialGradient id="radialGradient5956" xlink:href="#linearGradient5808" gradientUnits="userSpaceOnUse" cy="175.16" cx="348.7" gradientTransform="matrix(2.0188343,0,0,3.8541393,-821.0332,-591.54588)" r="2.2"/>
  <radialGradient id="radialGradient5959" xlink:href="#linearGradient5730" gradientUnits="userSpaceOnUse" cy="175.16" cx="348.7" gradientTransform="matrix(2.0188343,0,0,4.3939351,-499.02466,-767.23908)" r="1.7"/>
  <radialGradient id="radialGradient5961" xlink:href="#linearGradient5808" gradientUnits="userSpaceOnUse" cy="175.16" cx="348.7" gradientTransform="matrix(2.0188343,0,0,3.8541394,-499.02466,-672.6891)" r="2.2"/>
  <radialGradient id="radialGradient5964" xlink:href="#linearGradient5730" gradientUnits="userSpaceOnUse" cy="175.16" cx="348.7" gradientTransform="matrix(2.0188343,0,0,4.3939351,-546.87833,-713.34415)" r="1.7"/>
  <radialGradient id="radialGradient5966" xlink:href="#linearGradient5808" gradientUnits="userSpaceOnUse" cy="175.16" cx="348.7" gradientTransform="matrix(2.0188343,0,0,3.8541394,-546.87833,-618.79417)" r="2.2"/>
  <radialGradient id="radialGradient5969" xlink:href="#linearGradient5730" gradientUnits="userSpaceOnUse" cy="175.16" cx="348.7" gradientTransform="matrix(2.0188343,0,0,4.3939352,-753.18125,-661.27877)" r="1.7"/>
  <radialGradient id="radialGradient5971" xlink:href="#linearGradient5808" gradientUnits="userSpaceOnUse" cy="175.16" cx="348.7" gradientTransform="matrix(2.0188343,0,0,3.8541395,-753.18125,-566.72879)" r="2.2"/>
  <radialGradient id="radialGradient5974" xlink:href="#linearGradient5730" gradientUnits="userSpaceOnUse" cy="175.16" cx="348.7" gradientTransform="matrix(2.0188343,0,0,4.3939351,-468.34117,-834.85031)" r="1.7"/>
  <radialGradient id="radialGradient5976" xlink:href="#linearGradient5808" gradientUnits="userSpaceOnUse" cy="175.16" cx="348.7" gradientTransform="matrix(2.0188343,0,0,3.8541394,-468.34117,-740.30032)" r="2.2"/>
  <radialGradient id="radialGradient5979" xlink:href="#linearGradient5730" gradientUnits="userSpaceOnUse" cy="175.16" cx="348.7" gradientTransform="matrix(2.0188342,0,0,4.393935,-680.27856,-657.42705)" r="1.7"/>
  <radialGradient id="radialGradient5981" xlink:href="#linearGradient5808" gradientUnits="userSpaceOnUse" cy="175.16" cx="348.7" gradientTransform="matrix(2.0188342,0,0,3.8541393,-680.27856,-562.87707)" r="2.2"/>
  <linearGradient id="linearGradient5984" x1="280.5" xlink:href="#linearGradient4512" gradientUnits="userSpaceOnUse" y1="373.32" gradientTransform="matrix(0.79719925,0,0,0.79719925,-146.80825,-253.07352)" x2="342.97" y2="530.95"/>
  <radialGradient id="radialGradient5987" gradientUnits="userSpaceOnUse" cy="512.36" cx="384.08" gradientTransform="matrix(-0.9012644,0,0,-0.9012644,509.5159,625.13048)" r="163.36">
   <stop id="stop3833" stop-color="#0078f3" offset="0"/>
   <stop id="stop3835" stop-color="#003055" offset="1"/>
  </radialGradient>
 </defs>
 <metadata id="metadata7">
  <rdf:RDF>
   <cc:Work rdf:about="">
    <dc:format>image/svg+xml</dc:format>
    <dc:type rdf:resource="http://purl.org/dc/dcmitype/StillImage"/>
    <dc:title/>
   </cc:Work>
  </rdf:RDF>
 </metadata>
 <path id="path2985" stroke-linejoin="miter" style="color:#000000;enable-background:accumulate;" d="m326.22,163.35c0,89.944-72.914,162.86-162.86,162.86-89.944,0-162.86-72.914-162.86-162.86,0-89.944,72.914-162.86,162.86-162.86,89.944,0,162.86,72.914,162.86,162.86z" fill-rule="nonzero" stroke-dashoffset="0" stroke="#afafaf" stroke-linecap="butt" stroke-dasharray="none" stroke-miterlimit="1" stroke-width="1.00000095" fill="url(#linearGradient4551)"/>
 <path id="path3779" stroke-linejoin="miter" style="color:#000000;enable-background:accumulate;" d="m13.362,163.36c0-82.839,67.155-150,150-150,82.839,0,150,67.155,150,150,0,82.839-67.155,150-150,150-82.839,0-150-67.155-150-150z" fill-rule="nonzero" stroke-dashoffset="0" stroke="#afafaf" stroke-linecap="butt" stroke-dasharray="none" stroke-miterlimit="1" stroke-width="0.92101222" fill="url(#linearGradient4553)"/>
 <path id="path4552" style="color:#000000;enable-background:accumulate;" d="m159.37,25.554c-70.466,0-127.82,56.132-129.78,126.12,15.123,3.4539,31.089,5.3125,47.594,5.3125,78.988,0,145.64-42.352,166.56-100.28-22.692-19.421-52.165-31.156-84.375-31.156z" fill-rule="nonzero" filter="url(#filter4574)" fill="url(#radialGradient4831)"/>
 <path id="path3800" stroke-linejoin="miter" style="color:#000000;enable-background:accumulate;" d="m16.578,163.36c0-81.063,65.715-146.78,146.78-146.78,81.063,0,146.78,65.715,146.78,146.78,0,81.063-65.715,146.78-146.78,146.78-81.063,0-146.78-65.715-146.78-146.78z" fill-rule="nonzero" stroke-dashoffset="0" stroke="#afafaf" stroke-linecap="butt" stroke-dasharray="none" stroke-miterlimit="1" stroke-width="0.90126526" fill="url(#radialGradient5987)"/>
 <use id="use4797" xlink:href="#rect4750" height="78.793365" filter="url(#filter5319-0)" width="102.20525" y="0" x="0" fill="none"/>
 <rect id="rect3903-46-9" style="color:#000000;enable-background:accumulate;" transform="matrix(0.80497079,-0.59331444,0.59331444,0.80497079,0,0)" fill-rule="nonzero" rx="1.2848" ry="1.2848" height="14.939" width="6.864" stroke="url(#radialGradient5981)" y="104.74" x="20.257" stroke-width="1" fill="url(#radialGradient5979)"/>
 <rect id="rect3903-5" style="color:#000000;enable-background:accumulate;" transform="matrix(0.84461404,0.53537568,-0.53537568,0.84461404,0,0)" fill-rule="nonzero" rx="1.2848" ry="1.2848" height="14.939" width="6.864" stroke="url(#radialGradient5976)" y="-72.681" x="232.19" stroke-width="1" fill="url(#radialGradient5974)"/>
 <rect id="rect3903-7-0" style="color:#000000;enable-background:accumulate;" transform="matrix(0.5941496,-0.80435456,0.80435456,0.5941496,0,0)" fill-rule="nonzero" rx="1.2848" ry="1.2848" height="14.939" width="6.864" stroke="url(#radialGradient5971)" y="100.89" x="-52.646" stroke-width="1" fill="url(#radialGradient5969)"/>
 <rect id="rect3903-43-35" style="color:#000000;enable-background:accumulate;" transform="matrix(0.99938128,-0.03517174,0.03517174,0.99938128,0,0)" fill-rule="nonzero" rx="1.2848" ry="1.2848" height="14.939" width="6.864" stroke="url(#radialGradient5966)" y="48.825" x="153.66" stroke-width="1" fill="url(#radialGradient5964)"/>
 <rect id="rect3903-3-7" style="color:#000000;enable-background:accumulate;" transform="matrix(0.96628847,0.25746181,-0.25746181,0.96628847,0,0)" fill-rule="nonzero" rx="1.2848" ry="1.2848" height="14.939" width="6.864" stroke="url(#radialGradient5961)" y="-5.0698" x="201.51" stroke-width="1" fill="url(#radialGradient5959)"/>
 <rect id="rect3903-2-1" style="color:#000000;enable-background:accumulate;" transform="matrix(0.33340688,-0.94278304,0.94278304,0.33340688,0,0)" fill-rule="nonzero" rx="1.2848" ry="1.2848" height="14.939" width="6.864" stroke="url(#radialGradient5956)" y="76.073" x="-120.5" stroke-width="1" fill="url(#radialGradient5954)"/>
 <rect id="rect3903-46-0" style="color:#000000;enable-background:accumulate;" transform="matrix(0.65045652,0.75954349,-0.75954349,0.65045652,0,0)" fill-rule="nonzero" rx="1.2848" ry="1.2848" height="14.939" width="6.864" stroke="url(#radialGradient5951)" y="-144.69" x="241.24" stroke-width="1" fill="url(#radialGradient5949)"/>
 <rect id="rect3903-2-9" style="color:#000000;enable-background:accumulate;" transform="matrix(0.47044972,-0.8824268,0.8824268,0.47044972,0,0)" fill-rule="nonzero" rx="1.4741" ry="1.4741" height="4.0782" width="4.4372" stroke="url(#radialGradient5946)" y="92.256" x="-85.881" stroke-width="1" fill="url(#radialGradient5944)"/>
 <path id="rect3903-46-1" style="color:#000000;enable-background:accumulate;" d="m292.82,122.9,1.8443,4.2096c0.4541,1.0365-0.002,2.2663-1.0512,2.6907l-29.4,11.889c-0.8295,0.33543-1.7684-0.0117-2.1274-0.83119l-1.4583-3.3285c-0.35906-0.81954,0.0223-1.745,0.83119-2.1274l28.671-13.553c1.023-0.48368,2.2366,0.0147,2.6907,1.0512z" fill-rule="nonzero" stroke="url(#radialGradient5941)" stroke-width="1" fill="url(#radialGradient5939)"/>
 <path id="rect3903-46-1-9" style="color:#000000;enable-background:accumulate;" d="m114.32,48.73,4.336-1.5236c1.0676-0.37513,2.2598,0.17206,2.6043,1.25l9.6516,30.208c0.27231,0.85231-0.14418,1.7625-0.98833,2.0591l-3.4284,1.2047c-0.84415,0.29662-1.7385-0.15302-2.0592-0.98833l-11.36-29.606c-0.40564-1.0564,0.18232-2.2292,1.25-2.6043z" fill-rule="nonzero" stroke="url(#radialGradient5936)" stroke-width="1" fill="url(#radialGradient5934)"/>
 <rect id="rect3903-2-9-2" style="color:#000000;enable-background:accumulate;" transform="matrix(0.65217514,-0.75806833,0.75806833,0.65217514,0,0)" fill-rule="nonzero" rx="1.4741" ry="1.4741" height="4.0782" width="4.4372" stroke="url(#radialGradient5931)" y="104.99" x="-33.517" stroke-width="1" fill="url(#radialGradient5929)"/>
 <rect id="rect3903-2-9-4" style="color:#000000;enable-background:accumulate;" transform="matrix(0.40498532,-0.91432319,0.91432319,0.40498532,0,0)" fill-rule="nonzero" rx="1.4741" ry="1.4741" height="4.0782" width="4.4372" stroke="url(#radialGradient5926)" y="85.557" x="-102.4" stroke-width="1" fill="url(#radialGradient5924)"/>
 <rect id="rect3903-2-9-6" style="color:#000000;enable-background:accumulate;" transform="matrix(0.46831766,0.88356017,-0.88356017,0.46831766,0,0)" fill-rule="nonzero" rx="1.4741" ry="1.4741" height="4.0782" width="4.4372" stroke="url(#radialGradient5921)" y="-197.03" x="235.23" stroke-width="1" fill="url(#radialGradient5919)"/>
 <rect id="rect3903-2-9-9" style="color:#000000;enable-background:accumulate;" transform="matrix(0.53185786,0.84683364,-0.84683364,0.53185786,0,0)" fill-rule="nonzero" rx="1.4741" ry="1.4741" height="4.0782" width="4.4372" stroke="url(#radialGradient5916)" y="-179.45" x="238.94" stroke-width="1" fill="url(#radialGradient5914)"/>
 <rect id="rect3903-2-9-2-9" style="color:#000000;enable-background:accumulate;" transform="matrix(0.59345207,0.80486933,-0.80486933,0.59345207,0,0)" fill-rule="nonzero" rx="1.4741" ry="1.4741" height="4.0782" width="4.4372" stroke="url(#radialGradient5911)" y="-161.37" x="241.37" stroke-width="1" fill="url(#radialGradient5909)"/>
 <rect id="rect3903-2-9-4-3" style="color:#000000;enable-background:accumulate;" transform="matrix(0.88374137,0.46797563,-0.46797563,0.88374137,0,0)" fill-rule="nonzero" rx="1.4741" ry="1.4741" height="4.0782" width="4.4372" stroke="url(#radialGradient5906)" y="-53.423" x="227.54" stroke-width="1" fill="url(#radialGradient5904)"/>
 <rect id="rect3903-2-9-0-8" style="color:#000000;enable-background:accumulate;" transform="matrix(0.53445739,-0.84519542,0.84519542,0.53445739,0,0)" fill-rule="nonzero" rx="1.4741" ry="1.4741" height="4.0782" width="4.4372" stroke="url(#radialGradient5901)" y="97.816" x="-68.633" stroke-width="1" fill="url(#radialGradient5899)"/>
 <rect id="rect3903-2-9-6-8" style="color:#000000;enable-background:accumulate;" transform="matrix(0.70644302,-0.70776992,0.70776992,0.70644302,0,0)" fill-rule="nonzero" rx="1.4741" ry="1.4741" height="4.0782" width="4.4372" stroke="url(#radialGradient5896)" y="106.64" x="-15.484" stroke-width="1" fill="url(#radialGradient5894)"/>
 <rect id="rect3903-2-9-7" style="color:#000000;enable-background:accumulate;" transform="matrix(0.99934543,0.0361761,-0.0361761,0.99934543,0,0)" fill-rule="nonzero" rx="1.4741" ry="1.4741" height="4.0782" width="4.4372" stroke="url(#radialGradient5891)" y="38.257" x="167.85" stroke-width="1" fill="url(#radialGradient5889)"/>
 <rect id="rect3903-2-9-2-8" style="color:#000000;enable-background:accumulate;" transform="matrix(0.75708031,-0.65332182,0.65332182,0.75708031,0,0)" fill-rule="nonzero" rx="1.4741" ry="1.4741" height="4.0782" width="4.4372" stroke="url(#radialGradient5886)" y="106.95" x="2.711" stroke-width="1" fill="url(#radialGradient5884)"/>
 <rect id="rect3903-2-9-4-7" style="color:#000000;enable-background:accumulate;" transform="matrix(0.70521915,0.70898939,-0.70898939,0.70521915,0,0)" fill-rule="nonzero" rx="1.4741" ry="1.4741" height="4.0782" width="4.4372" stroke="url(#radialGradient5881)" y="-125.35" x="242.2" stroke-width="1" fill="url(#radialGradient5879)"/>
 <rect id="rect3903-2-9-0-4" style="color:#000000;enable-background:accumulate;" transform="matrix(0.99376926,-0.11145699,0.11145699,0.99376926,0,0)" fill-rule="nonzero" rx="1.4741" ry="1.4741" height="4.0782" width="4.4372" stroke="url(#radialGradient5876)" y="61.393" x="140.06" stroke-width="1" fill="url(#radialGradient5874)"/>
 <rect id="rect3903-2-9-6-7" style="color:#000000;enable-background:accumulate;" transform="matrix(0.99357888,0.11314157,-0.11314157,0.99357888,0,0)" fill-rule="nonzero" rx="1.4741" ry="1.4741" height="4.0782" width="4.4372" stroke="url(#radialGradient5871)" y="24.617" x="180.92" stroke-width="1" fill="url(#radialGradient5869)"/>
 <rect id="rect3903-2-9-07" style="color:#000000;enable-background:accumulate;" transform="matrix(0.98183816,0.18972037,-0.18972037,0.98183816,0,0)" fill-rule="nonzero" rx="1.4741" ry="1.4741" height="4.0782" width="4.4372" stroke="url(#radialGradient5866)" y="9.9527" x="192.94" stroke-width="1" fill="url(#radialGradient5864)"/>
 <rect id="rect3903-2-9-2-6" style="color:#000000;enable-background:accumulate;" transform="matrix(0.94307638,0.33257621,-0.33257621,0.94307638,0,0)" fill-rule="nonzero" rx="1.4741" ry="1.4741" height="4.0782" width="4.4372" stroke="url(#radialGradient5861)" y="-20.472" x="212.6" stroke-width="1" fill="url(#radialGradient5859)"/>
 <rect id="rect3903-2-9-4-0" style="color:#000000;enable-background:accumulate;" transform="matrix(0.91522894,0.40293422,-0.40293422,0.91522894,0,0)" fill-rule="nonzero" rx="1.4741" ry="1.4741" height="4.0782" width="4.4372" stroke="url(#radialGradient5856)" y="-37.051" x="220.85" stroke-width="1" fill="url(#radialGradient5854)"/>
 <rect id="rect3903-2-9-0-85" style="color:#000000;enable-background:accumulate;" transform="matrix(0.80257315,0.59655372,-0.59655372,0.80257315,0,0)" fill-rule="nonzero" rx="1.4741" ry="1.4741" height="4.0782" width="4.4372" stroke="url(#radialGradient5851)" y="-89.231" x="237.66" stroke-width="1" fill="url(#radialGradient5849)"/>
 <rect id="rect3903-2-9-6-0" style="color:#000000;enable-background:accumulate;" transform="matrix(0.98232471,-0.18718485,0.18718485,0.98232471,0,0)" fill-rule="nonzero" rx="1.4741" ry="1.4741" height="4.0782" width="4.4372" stroke="url(#radialGradient5846)" y="71.698" x="124.41" stroke-width="1" fill="url(#radialGradient5844)"/>
 <rect id="rect3903-2-9-8" style="color:#000000;enable-background:accumulate;" transform="matrix(0.96556983,-0.26014401,0.26014401,0.96556983,0,0)" fill-rule="nonzero" rx="1.4741" ry="1.4741" height="4.0782" width="4.4372" stroke="url(#radialGradient5841)" y="80.583" x="108.39" stroke-width="1" fill="url(#radialGradient5839)"/>
 <rect id="rect3903-2-9-2-1" style="color:#000000;enable-background:accumulate;" transform="matrix(0.91465167,-0.40424289,0.40424289,0.91465167,0,0)" fill-rule="nonzero" rx="1.4741" ry="1.4741" height="4.0782" width="4.4372" stroke="url(#radialGradient5836)" y="94.888" x="73.827" stroke-width="1" fill="url(#radialGradient5834)"/>
 <rect id="rect3903-2-9-4-4" style="color:#000000;enable-background:accumulate;" transform="matrix(0.88327822,-0.46884921,0.46884921,0.88327822,0,0)" fill-rule="nonzero" rx="1.4741" ry="1.4741" height="4.0782" width="4.4372" stroke="url(#radialGradient5831)" y="99.746" x="56.934" stroke-width="1" fill="url(#radialGradient5829)"/>
 <rect id="rect3903-2-9-0-5" style="color:#000000;enable-background:accumulate;" transform="matrix(0.84592638,-0.53329969,0.53329969,0.84592638,0,0)" fill-rule="nonzero" rx="1.4741" ry="1.4741" height="4.0782" width="4.4372" stroke="url(#radialGradient5826)" y="103.49" x="39.092" stroke-width="1" fill="url(#radialGradient5824)"/>
 <rect id="rect3903-2-9-6-4" style="color:#000000;enable-background:accumulate;" transform="matrix(0.75698407,0.65343333,-0.65343333,0.75698407,0,0)" fill-rule="nonzero" rx="1.4741" ry="1.4741" height="4.0782" width="4.4372" stroke="url(#radialGradient5821)" y="-106.83" x="240.56" stroke-width="1" fill="url(#radialGradient5819)"/>
 <path id="rect4750" style="color:#000000;enable-background:accumulate;" d="m222.87,56.292,2.1614,1.0265c0.41386,0.19663,0.48791,0.85118,0.20911,1.4875l-55.86,127.47c-0.86229,1.968-2.6945,3.0139-3.9747,2.4058l-6.685-3.175c-1.2801-0.60799-1.6273-2.6889-0.64683-4.6007l63.51-123.85c0.31702-0.61811,0.87113-0.97439,1.285-0.77784z" fill-rule="nonzero" stroke="#000" stroke-width="1" fill="#FFF"/>
 <path id="path3998" opacity="0.85185182" style="color:#000000;enable-background:accumulate;" d="m159.37,25.554c-70.466,0-127.82,56.132-129.78,126.12,15.123,3.4539,31.089,5.3125,47.594,5.3125,78.988,0,145.64-42.352,166.56-100.28-22.692-19.421-52.165-31.156-84.375-31.156z" fill-rule="nonzero" fill="url(#linearGradient5984)"/>
 <path id="path4535" opacity="0.38683131" style="color:#000000;enable-background:accumulate;" d="m271.81,90.404c-27.007,48.625-87.77,82.531-158.44,82.531-8.0873,0-16.05-0.45411-23.844-1.3125,25.878,13.651,56.582,21.562,89.5,21.562,42.201,0,80.729-13.002,110.16-34.437,0.0288-1.1239,0.0312-2.2442,0.0312-3.375,0-23.673-6.3378-45.859-17.406-64.969z" fill-rule="nonzero" fill="url(#linearGradient5816)"/>
</svg>
